<?xml version="1.0" encoding="UTF-8" standalone="no"?>
<svg width="32px" height="40px" viewBox="0 0 32 40" version="1.1" xmlns="http://www.w3.org/2000/svg" xmlns:xlink="http://www.w3.org/1999/xlink">
    <!-- Generator: Sketch 41.1 (35376) - http://www.bohemiancoding.com/sketch -->
    <title>Board-icon@2x</title>
    <desc>Created with Sketch.</desc>
    <defs></defs>
    <g id="Landing-Page-" stroke="none" stroke-width="1" fill="none" fill-rule="evenodd">
        <g id="Landing-Page-1.7" transform="translate(-943.000000, -2547.000000)">
            <g id="Board" transform="translate(0.000000, 2407.000000)">
                <g id="Board-icon" transform="translate(909.000000, 110.000000)">
                    <g id="Board-icon@2x" transform="translate(18.000000, 18.000000)">
                        <rect id="Grid" fill-opacity="0" fill="#FFFFFF" x="0" y="0" width="64" height="64"></rect>
                        <path d="M36,20 L28,20 L28,16 L36,16 L36,20 Z M44,16 L40,16 C40,13.79 38.21,12 36,12 L28,12 C25.79,12 24,13.79 24,16 L20,16 C17.79,16 16,17.782 16,19.978 L16,48.022 C16,50.218 17.79,52 20,52 L44,52 C46.21,52 48,50.218 48,48.022 L48,19.978 C48,17.782 46.21,16 44,16 L44,16 Z" id="Board" fill="#FF5E3A"></path>
                    </g>
                </g>
            </g>
        </g>
    </g>
</svg>