<?xml version="1.0" encoding="UTF-8" standalone="no"?>
<svg width="52px" height="71px" viewBox="0 0 52 71" version="1.1" xmlns="http://www.w3.org/2000/svg" xmlns:xlink="http://www.w3.org/1999/xlink">
    <!-- Generator: Sketch 3.8.3 (29802) - http://www.bohemiancoding.com/sketch -->
    <title>pin-blue</title>
    <desc>Created with Sketch.</desc>
    <defs>
        <filter x="-50%" y="-50%" width="200%" height="200%" filterUnits="objectBoundingBox" id="filter-1">
            <feGaussianBlur stdDeviation="2" in="SourceGraphic"></feGaussianBlur>
        </filter>
        <linearGradient x1="50%" y1="-2.48949813e-15%" x2="50%" y2="100%" id="linearGradient-2">
            <stop stop-color="#2ED5FA" offset="0%"></stop>
            <stop stop-color="#0051F2" offset="100%"></stop>
        </linearGradient>
        <path d="M45,14.0625 C31.0190625,14.0625 19.6875,24.946875 19.6875,38.3709375 C19.6875,44.24625 21.85875,49.6321875 25.47,53.8340625 L41.11875,73.873125 C41.9315625,75.110625 43.363125,75.9375 45,75.9375 C46.636875,75.9375 48.0684375,75.110625 48.88125,73.873125 L64.53,53.8340625 C68.14125,49.6321875 70.3125,44.24625 70.3125,38.3709375 C70.3125,24.946875 58.9809375,14.0625 45,14.0625" id="path-3"></path>
        <filter x="-50%" y="-50%" width="200%" height="200%" filterUnits="objectBoundingBox" id="filter-4">
            <feGaussianBlur stdDeviation="2.5" in="SourceAlpha" result="shadowBlurInner1"></feGaussianBlur>
            <feOffset dx="0" dy="2" in="shadowBlurInner1" result="shadowOffsetInner1"></feOffset>
            <feComposite in="shadowOffsetInner1" in2="SourceAlpha" operator="arithmetic" k2="-1" k3="1" result="shadowInnerInner1"></feComposite>
            <feColorMatrix values="0 0 0 0 1   0 0 0 0 1   0 0 0 0 1  0 0 0 0.5 0" type="matrix" in="shadowInnerInner1"></feColorMatrix>
        </filter>
    </defs>
    <g id="Landing-Page-Advanced" stroke="none" stroke-width="1" fill="none" fill-rule="evenodd">
        <g id="Landing-Page-1.5---Intro" transform="translate(-933.000000, -523.000000)">
            <g id="pin-blue" transform="translate(914.000000, 509.000000)">
                <rect id="Grid" fill-opacity="0" fill="#FFFFFF" x="0" y="0" width="90" height="90"></rect>
                <ellipse id="Shadow" fill-opacity="0.498980978" fill="#313131" style="mix-blend-mode: overlay;" filter="url(#filter-1)" cx="45" cy="75.6" rx="15.3" ry="4.5"></ellipse>
                <g id="Fill-1">
                    <use fill="url(#linearGradient-2)" fill-rule="evenodd" xlink:href="#path-3"></use>
                    <use fill="black" fill-opacity="1" filter="url(#filter-4)" xlink:href="#path-3"></use>
                </g>
            </g>
        </g>
    </g>
</svg>