<?xml version="1.0" encoding="UTF-8" standalone="no"?>
<svg width="34px" height="50px" viewBox="0 0 34 50" version="1.1" xmlns="http://www.w3.org/2000/svg" xmlns:xlink="http://www.w3.org/1999/xlink">
    <!-- Generator: Sketch 3.8.3 (29802) - http://www.bohemiancoding.com/sketch -->
    <title>pin-turquoise</title>
    <desc>Created with Sketch.</desc>
    <defs>
        <filter x="-50%" y="-50%" width="200%" height="200%" filterUnits="objectBoundingBox" id="filter-1">
            <feGaussianBlur stdDeviation="2" in="SourceGraphic"></feGaussianBlur>
        </filter>
        <linearGradient x1="50%" y1="0%" x2="50%" y2="100%" id="linearGradient-2">
            <stop stop-color="#5AEBC7" offset="0%"></stop>
            <stop stop-color="#5FC9F8" offset="100%"></stop>
        </linearGradient>
        <path d="M30,9.375 C20.679375,9.375 13.125,16.63125 13.125,25.580625 C13.125,29.4975 14.5725,33.088125 16.98,35.889375 L27.4125,49.24875 C27.954375,50.07375 28.90875,50.625 30,50.625 C31.09125,50.625 32.045625,50.07375 32.5875,49.24875 L43.02,35.889375 C45.4275,33.088125 46.875,29.4975 46.875,25.580625 C46.875,16.63125 39.320625,9.375 30,9.375" id="path-3"></path>
        <filter x="-50%" y="-50%" width="200%" height="200%" filterUnits="objectBoundingBox" id="filter-4">
            <feGaussianBlur stdDeviation="2.5" in="SourceAlpha" result="shadowBlurInner1"></feGaussianBlur>
            <feOffset dx="0" dy="2" in="shadowBlurInner1" result="shadowOffsetInner1"></feOffset>
            <feComposite in="shadowOffsetInner1" in2="SourceAlpha" operator="arithmetic" k2="-1" k3="1" result="shadowInnerInner1"></feComposite>
            <feColorMatrix values="0 0 0 0 1   0 0 0 0 1   0 0 0 0 1  0 0 0 0.5 0" type="matrix" in="shadowInnerInner1"></feColorMatrix>
        </filter>
    </defs>
    <g id="Landing-Page-Advanced" stroke="none" stroke-width="1" fill="none" fill-rule="evenodd">
        <g id="Landing-Page-1.5---Intro" transform="translate(-486.000000, -656.000000)">
            <g id="pin-turquoise" transform="translate(473.000000, 647.000000)">
                <rect id="Grid" fill-opacity="0" fill="#FFFFFF" x="0" y="0" width="60" height="60"></rect>
                <ellipse id="Shadow" fill-opacity="0.498980978" fill="#313131" style="mix-blend-mode: overlay;" filter="url(#filter-1)" cx="30" cy="50.4" rx="10.2" ry="3"></ellipse>
                <g id="Fill-1">
                    <use fill="url(#linearGradient-2)" fill-rule="evenodd" xlink:href="#path-3"></use>
                    <use fill="black" fill-opacity="1" filter="url(#filter-4)" xlink:href="#path-3"></use>
                </g>
            </g>
        </g>
    </g>
</svg>