<?xml version="1.0" encoding="UTF-8" standalone="no"?>
<svg width="58px" height="77px" viewBox="0 0 58 77" version="1.1" xmlns="http://www.w3.org/2000/svg" xmlns:xlink="http://www.w3.org/1999/xlink">
    <!-- Generator: Sketch 3.8.3 (29802) - http://www.bohemiancoding.com/sketch -->
    <title>pin-rose</title>
    <desc>Created with Sketch.</desc>
    <defs>
        <filter x="-50%" y="-50%" width="200%" height="200%" filterUnits="objectBoundingBox" id="filter-1">
            <feGaussianBlur stdDeviation="1" in="SourceGraphic"></feGaussianBlur>
        </filter>
        <linearGradient x1="50%" y1="0%" x2="50%" y2="100%" id="linearGradient-2">
            <stop stop-color="#C772DD" offset="0%"></stop>
            <stop stop-color="#E2B7EE" offset="100%"></stop>
        </linearGradient>
        <path d="M50,15.625 C34.465625,15.625 21.875,27.71875 21.875,42.634375 C21.875,49.1625 24.2875,55.146875 28.3,59.815625 L45.6875,82.08125 C46.590625,83.45625 48.18125,84.375 50,84.375 C51.81875,84.375 53.409375,83.45625 54.3125,82.08125 L71.7,59.815625 C75.7125,55.146875 78.125,49.1625 78.125,42.634375 C78.125,27.71875 65.534375,15.625 50,15.625" id="path-3"></path>
        <filter x="-50%" y="-50%" width="200%" height="200%" filterUnits="objectBoundingBox" id="filter-4">
            <feGaussianBlur stdDeviation="2.5" in="SourceAlpha" result="shadowBlurInner1"></feGaussianBlur>
            <feOffset dx="0" dy="2" in="shadowBlurInner1" result="shadowOffsetInner1"></feOffset>
            <feComposite in="shadowOffsetInner1" in2="SourceAlpha" operator="arithmetic" k2="-1" k3="1" result="shadowInnerInner1"></feComposite>
            <feColorMatrix values="0 0 0 0 1   0 0 0 0 1   0 0 0 0 1  0 0 0 0.5 0" type="matrix" in="shadowInnerInner1"></feColorMatrix>
        </filter>
    </defs>
    <g id="Landing-Page-Advanced" stroke="none" stroke-width="1" fill="none" fill-rule="evenodd">
        <g id="Landing-Page-1.5---Intro" transform="translate(-474.000000, -491.000000)">
            <g id="pin-rose" transform="translate(453.000000, 476.000000)">
                <rect id="Grid" fill-opacity="0" fill="#FFFFFF" x="0" y="0" width="100" height="100"></rect>
                <ellipse id="Shadow" fill-opacity="0.498980978" fill="#313131" style="mix-blend-mode: overlay;" filter="url(#filter-1)" cx="50" cy="84" rx="17" ry="5"></ellipse>
                <g id="Fill-1">
                    <use fill="url(#linearGradient-2)" fill-rule="evenodd" xlink:href="#path-3"></use>
                    <use fill="black" fill-opacity="1" filter="url(#filter-4)" xlink:href="#path-3"></use>
                </g>
            </g>
        </g>
    </g>
</svg>