<?xml version="1.0" encoding="UTF-8" standalone="no"?>
<svg width="36px" height="44px" viewBox="0 0 36 44" version="1.1" xmlns="http://www.w3.org/2000/svg" xmlns:xlink="http://www.w3.org/1999/xlink">
    <!-- Generator: Sketch 41.1 (35376) - http://www.bohemiancoding.com/sketch -->
    <title>Place-icon@2x</title>
    <desc>Created with Sketch.</desc>
    <defs></defs>
    <g id="Landing-Page-" stroke="none" stroke-width="1" fill="none" fill-rule="evenodd">
        <g id="Landing-Page-1.7" transform="translate(-447.000000, -3360.000000)">
            <g id="Follow-your-favorite-places" transform="translate(0.000000, 3207.000000)">
                <g id="Tour-Badge" transform="translate(415.000000, 125.000000)">
                    <g id="Place-icon@2x" transform="translate(18.000000, 18.000000)">
                        <rect id="Grid" fill-opacity="0" fill="#FFFFFF" x="0" y="0" width="64" height="64"></rect>
                        <path d="M32,10 C22.058,10 14,17.74 14,27.286 C14,31.464 15.544,35.294 18.112,38.282 L29.24,52.532 C29.818,53.412 30.836,54 32,54 C33.164,54 34.182,53.412 34.76,52.532 L45.888,38.282 C48.456,35.294 50,31.464 50,27.286 C50,17.74 41.942,10 32,10 Z M32.0016297,36 C27.5819923,36 24,32.4180077 24,27.9983703 C24,23.5819923 27.5819923,20 32.0016297,20 C36.4212671,20 40.0032593,23.5819923 40.0032593,27.9983703 C40.0032593,32.4180077 36.4212671,36 32.0016297,36 Z" id="Fill-1" fill="#43E8C6"></path>
                    </g>
                </g>
            </g>
        </g>
    </g>
</svg>