<?xml version="1.0" encoding="UTF-8" standalone="no"?>
<svg width="8px" height="8px" viewBox="0 0 8 8" version="1.1" xmlns="http://www.w3.org/2000/svg" xmlns:xlink="http://www.w3.org/1999/xlink">
    <!-- Generator: Sketch 3.8.3 (29802) - http://www.bohemiancoding.com/sketch -->
    <title>star-mini</title>
    <desc>Created with Sketch.</desc>
    <defs>
        <linearGradient x1="50%" y1="0%" x2="50%" y2="100%" id="linearGradient-1">
            <stop stop-color="#FED958" offset="0%"></stop>
            <stop stop-color="#FECC2F" offset="100%"></stop>
        </linearGradient>
    </defs>
    <g id="Landing-Page-Advanced" stroke="none" stroke-width="1" fill="none" fill-rule="evenodd">
        <g id="Landing-Page-1.5---Intro" transform="translate(-239.000000, -181.000000)" fill="url(#linearGradient-1)">
            <g id="Stars_l" transform="translate(194.000000, 166.000000)">
                <path d="M49.000065,22.99987 C48.4153271,22.99987 47.9023649,22.6095246 47.7465908,22.0457213 C47.3697684,20.6805526 47.3194474,20.6302316 45.9541487,20.2532792 C45.3904754,20.0976351 45,19.5846729 45,18.999935 C45,18.415067 45.3904754,17.9022349 45.9541487,17.7465908 C47.3194474,17.3695083 47.3697684,17.3191873 47.7465908,15.9541487 C47.9023649,15.3904754 48.4153271,15 49.000065,15 C49.584933,15 50.0977651,15.3904754 50.2535392,15.9541487 C50.6303616,17.3193174 50.6805526,17.3695083 52.0458513,17.7465908 C52.6095246,17.9022349 53,18.415067 53,18.999935 C53,19.5846729 52.6095246,20.0976351 52.0458513,20.2532792 C50.6805526,20.6302316 50.6303616,20.6805526 50.2535392,22.0455912 C50.0977651,22.6093946 49.584933,22.99987 49.000065,22.99987" id="star-mini"></path>
            </g>
        </g>
    </g>
</svg>