<?xml version="1.0" encoding="UTF-8" standalone="no"?>
<svg width="36px" height="36px" viewBox="0 0 36 36" version="1.1" xmlns="http://www.w3.org/2000/svg" xmlns:xlink="http://www.w3.org/1999/xlink">
    <!-- Generator: Sketch 41.1 (35376) - http://www.bohemiancoding.com/sketch -->
    <title>Tour-icons@2x</title>
    <desc>Created with Sketch.</desc>
    <defs></defs>
    <g id="Landing-Page-" stroke="none" stroke-width="1" fill="none" fill-rule="evenodd">
        <g id="Landing-Page-1.7" transform="translate(-399.000000, -1749.000000)">
            <g id="Navbar-new2" transform="translate(0.000000, 1607.000000)">
                <g id="Tour">
                    <g id="Tour-Badge@2x" transform="translate(367.000000, 110.000000)">
                        <g id="Tour-icons@2x" transform="translate(18.000000, 18.000000)">
                            <rect id="Grid" fill-opacity="0" fill="#FFFFFF" x="0" y="0" width="64" height="64"></rect>
                            <g id="Icon" transform="translate(32.000000, 32.000000) rotate(-45.000000) translate(-32.000000, -32.000000) translate(14.000000, 14.000000)" fill="#1F82FE">
                                <path d="M6.83075391,11.1724138 L9.93103448,14.6053953 C8.20330976,16.6327066 6.50079057,18.8680775 5.28405074,21.1034483 C4.56454734,17.7491234 5.05720094,14.1410674 6.83075391,11.1724138 M21.1034483,5.28251388 C18.8706148,6.50134727 16.6327066,8.20359016 14.6053953,9.93103448 L11.1724138,6.83125706 C14.1410674,5.05799193 17.7491234,4.56541829 21.1034483,5.28251388 M27.1404515,8.85954851 C27.9653347,9.68685077 25.7132341,13.3202075 21.9734409,17.3793103 L18.6206897,14.0265591 C22.6797925,10.2867659 26.3131492,8.03466527 27.1404515,8.85954851 M27.9273636,24.8275862 L24.8275862,21.3946047 C26.5550305,19.3672934 28.2572734,17.1319225 29.4761068,14.8965517 C30.1932024,18.2508766 29.7006288,21.8589326 27.9273636,24.8275862 M14.8965517,29.4761068 C17.1319225,28.2572734 19.3672934,26.5550305 21.3946047,24.8275862 L24.8275862,27.9273636 C21.8589326,29.7006288 18.2508766,30.1932024 14.8965517,29.4761068 M8.86045487,27.1395451 C8.03300569,26.3145154 10.2855062,22.6805134 14.0259637,18.6206897 L17.3793103,21.9740363 C13.3194866,25.7144938 9.68548461,27.9669943 8.86045487,27.1395451 M30.7344839,30.7344839 C37.755172,23.7112231 37.755172,12.2862043 30.7344839,5.26551613 C23.7137957,-1.75517204 12.2887769,-1.75517204 5.26551613,5.26551613 C-1.75517204,12.2862043 -1.75517204,23.7112231 5.26551613,30.7344839 C12.2887769,37.755172 23.7137957,37.755172 30.7344839,30.7344839" id="Fill-3"></path>
                            </g>
                        </g>
                    </g>
                </g>
            </g>
        </g>
    </g>
</svg>