<?xml version="1.0" encoding="UTF-8" standalone="no"?>
<svg width="44px" height="40px" viewBox="0 0 44 40" version="1.1" xmlns="http://www.w3.org/2000/svg" xmlns:xlink="http://www.w3.org/1999/xlink">
    <!-- Generator: Sketch 41.1 (35376) - http://www.bohemiancoding.com/sketch -->
    <title>User-icon@2x</title>
    <desc>Created with Sketch.</desc>
    <defs></defs>
    <g id="Landing-Page-" stroke="none" stroke-width="1" fill="none" fill-rule="evenodd">
        <g id="Landing-Page-1.7" transform="translate(-982.000000, -947.000000)">
            <g id="Shard" transform="translate(0.000000, 807.000000)">
                <g id="User" transform="translate(954.000000, 110.000000)">
                    <g id="User-icon@2x" transform="translate(18.000000, 18.000000)">
                        <rect id="Grid" fill-opacity="0" fill="#FFFFFF" x="0" y="0" width="64" height="64"></rect>
                        <path d="M32.7117935,37 L31.6838029,37 C29.7178207,38.142 27.4338415,38.798 24.9998636,38.798 C22.5618858,38.798 20.2759066,38.144 18.3079245,37 L17.2899337,37 C16.383942,37 14.9839547,37.38 14.1919619,37.85 L11.433987,39.484 C10.6459941,39.95 10,41.072 10,41.984 L10,50.348 C10,51.248 10.7419933,52 11.6559849,52 L38.3457423,52 C39.259734,52 39.9997273,51.26 39.9997273,50.348 L39.9997273,41.984 C39.9997273,41.084 39.3577331,39.952 38.5657403,39.484 L35.8097654,37.85 C35.0217725,37.382 33.6297852,37 32.7117935,37 M24.9998636,12 C19.4899137,12 14.9999545,16.476 14.9999545,21.996 L14.9999545,25.336 C14.9999545,30.862 19.4779138,35.334 24.9998636,35.334 C30.5118135,35.334 34.9997727,30.858 34.9997727,25.336 L34.9997727,21.996 C34.9997727,16.472 30.5238134,12 24.9998636,12 Z M52.7100117,38.7352 L50.2280343,37.2652 C49.5180407,36.8432 48.2680521,36.4992 47.4400596,36.4992 L46.516068,36.4992 C45.3300788,37.1892 44.0060909,37.6592 42.6081036,37.9092 C43.4720957,39.1052 44.0000909,40.5672 44.0000909,41.9852 L44.0000909,49.9992 L52.5100135,49.9992 C53.3340061,49.9992 54,49.3352 54,48.5132 L54,40.9852 C54,40.1772 53.4220053,39.1572 52.7100117,38.7352 Z M40.5007227,14 C39.2387342,14 38.054745,14.292 36.9667548,14.77 C38.2487432,16.882 39.0007364,19.35 39.0007364,21.998 L39.0007364,25.336 C39.0007364,28.456 37.9747457,31.34 36.2427614,33.67 C36.8267561,33.878 37.3767511,34.128 37.8467468,34.408 L38.3367424,34.698 C39.0327361,34.876 39.7487296,35 40.5007227,35 C45.4606776,35 49.5006409,30.972 49.5006409,26.002 L49.5006409,22.998 C49.5006409,18.024 45.4706775,14 40.5007227,14 Z" id="Combined-Shape" fill="#6B6DFF"></path>
                    </g>
                </g>
            </g>
        </g>
    </g>
</svg>