<?xml version="1.0" encoding="UTF-8" standalone="no"?>
<svg width="60px" height="30px" viewBox="0 0 60 30" version="1.1" xmlns="http://www.w3.org/2000/svg" xmlns:xlink="http://www.w3.org/1999/xlink" xmlns:sketch="http://www.bohemiancoding.com/sketch/ns">
    <!-- Generator: Sketch 3.5.2 (25235) - http://www.bohemiancoding.com/sketch -->
    <title>bc_home</title>
    <desc>Created with Sketch.</desc>
    <defs></defs>
    <g id="Icons" stroke="none" stroke-width="1" fill="none" fill-rule="evenodd" sketch:type="MSPage">
        <g id="bc_home" sketch:type="MSArtboardGroup">
            <path d="M0,1.99161703 C0,0.891677316 0.889064278,0 1.99091407,0 L48.0090859,0 C49.1086374,0 50.4959016,0.743852332 51.1083829,1.66257441 L58.8916171,13.3374256 C59.5037601,14.2556401 59.5040984,15.7438523 58.8916171,16.6625744 L51.1083829,28.3374256 C50.4962399,29.2556401 49.1109357,30 48.0090859,30 L1.99091407,30 C0.891362589,30 0,29.1021596 0,28.008383 L0,1.99161703 Z" id="Rectangle-275" fill="#E6EDF4" sketch:type="MSShapeGroup"></path>
            <path d="M26.3744244,7.10418063 C26.1438816,6.96527312 25.8566121,6.96527312 25.6260693,7.10418063 L18.3534246,11.4677674 C18.0727006,11.6357655 17.9396112,11.9703072 18.0261556,12.2859399 C18.1141546,12.6008454 18.4006968,12.8182975 18.7272386,12.8182975 L18.7272386,23 L20.1817675,23 L20.1817675,12.8182975 L31.8179989,12.8182975 L31.8179989,23 L33.2725278,23 L33.2725278,12.8182975 C33.5997968,12.8182975 33.886339,12.6008454 33.9736108,12.2859399 C34.0608825,11.9703072 33.9270659,11.6357655 33.647069,11.4677674 L26.3744244,7.10418063 Z" id="Fill-449" fill="#B0BEC5" sketch:type="MSShapeGroup"></path>
        </g>
    </g>
</svg>
