<?xml version="1.0" encoding="UTF-8" standalone="no"?>
<svg width="32px" height="32px" viewBox="0 0 32 32" version="1.1" xmlns="http://www.w3.org/2000/svg" xmlns:xlink="http://www.w3.org/1999/xlink" xmlns:sketch="http://www.bohemiancoding.com/sketch/ns">
    <!-- Generator: Sketch 3.4.4 (17249) - http://www.bohemiancoding.com/sketch -->
    <title>Camera</title>
    <desc>Created with Sketch.</desc>
    <defs></defs>
    <g id="Icons" stroke="none" stroke-width="1" fill="none" fill-rule="evenodd" sketch:type="MSPage">
        <g id="Camera" sketch:type="MSArtboardGroup">
            <rect id="camera" fill-opacity="0" fill="#FFFFFF" sketch:type="MSShapeGroup" x="0" y="0" width="32" height="32"></rect>
            <path d="M15.8356,22.1314 C13.2936,22.1314 11.2326,20.0194 11.2326,17.4144 C11.2326,14.8094 13.2936,12.6974 15.8356,12.6974 C18.3776,12.6974 20.4386,14.8094 20.4386,17.4144 C20.4386,20.0194 18.3776,22.1314 15.8356,22.1314 M21.7186,8.9474 L20.8286,7.1234 C20.4926,6.4354 19.7956,6.0004 19.0306,6.0004 L12.6406,6.0004 C11.8756,6.0004 11.1786,6.4354 10.8426,7.1234 L9.9426,8.9684 C9.7306,9.4034 9.3666,9.7474 8.9196,9.9354 L5.2256,11.4854 C4.4836,11.7974 3.9996,12.5244 3.9996,13.3294 L3.9996,23.6414 C3.9996,24.9444 5.0306,26.0004 6.3016,26.0004 L25.6986,26.0004 C26.9696,26.0004 27.9996,24.9444 27.9996,23.6414 L27.9996,13.3584 C27.9996,12.5384 27.4996,11.8014 26.7376,11.4994 L22.7786,9.9294 C22.3156,9.7464 21.9376,9.3954 21.7186,8.9474" id="Fill-1" fill="#4990E2" sketch:type="MSShapeGroup"></path>
        </g>
    </g>
</svg>