<?xml version="1.0" encoding="iso-8859-1"?>
<!-- Generator: Adobe Illustrator 18.1.1, SVG Export Plug-In . SVG Version: 6.00 Build 0)  -->
<svg version="1.1" id="Capa_1" xmlns="http://www.w3.org/2000/svg" xmlns:xlink="http://www.w3.org/1999/xlink" x="0px" y="0px"
	 viewBox="0 0 21.069 21.069" style="enable-background:new 0 0 21.069 21.069;" xml:space="preserve">
<g>
	<g>
		<path style="fill:#ffffff;" d="M19.212,10.316l-2.37-2.371l-5.146,5.145l-1.38,4.164l4.124-1.419l5.145-5.146L19.212,10.316
			L19.212,10.316z M11.132,16.428l0.762-2.433l1.647,1.649L11.132,16.428z"/>
		<path style="fill:#ffffff;" d="M21.01,8.977l-2.455-2.458c-0.081-0.079-0.209-0.079-0.288,0l-0.979,0.98
			c-0.079,0.08-0.079,0.207,0,0.287l2.457,2.457c0.079,0.079,0.208,0.078,0.287,0l0.978-0.98C21.089,9.184,21.089,9.056,21.01,8.977
			z"/>
		<path style="fill:#ffffff;" d="M1.409,13.494V5.213h12.648v3.702l1.152-1.152v-3.64c0-0.169-0.137-0.307-0.309-0.307H0.309
			C0.138,3.816,0,3.954,0,4.123v12.628c0,0.169,0.138,0.307,0.309,0.307H9.47l1.183-3.564C10.653,13.494,1.409,13.494,1.409,13.494z
			"/>
		<path style="fill:#ffffff;" d="M5.368,11.314C3.156,6.877,1.684,12.5,1.684,12.5h3.292h0.908h4.766
			C8.098,5.838,6.16,9.255,5.368,11.314z"/>
		<circle style="fill:#ffffff;" cx="10.921" cy="7.105" r="1.243"/>
	</g>
</g>
<g>
</g>
<g>
</g>
<g>
</g>
<g>
</g>
<g>
</g>
<g>
</g>
<g>
</g>
<g>
</g>
<g>
</g>
<g>
</g>
<g>
</g>
<g>
</g>
<g>
</g>
<g>
</g>
<g>
</g>
</svg>
