<?xml version="1.0" encoding="UTF-8" standalone="no"?>
<svg width="116px" height="27px" viewBox="0 0 116 27" version="1.1" xmlns="http://www.w3.org/2000/svg" xmlns:xlink="http://www.w3.org/1999/xlink">
    <!-- Generator: Sketch 3.8.3 (29802) - http://www.bohemiancoding.com/sketch -->
    <title>Logo+logotype(big)</title>
    <desc>Created with Sketch.</desc>
    <defs>
        <path d="M2.10373309,7.9377381 L0.09886296,0.78 C0.0400358496,0.557353896 0.0576224297,0.381488095 0.151710633,0.252402597 C0.245359172,0.123580898 0.397922754,0.0589502165 0.608873782,0.0589502165 L0.995778544,0.0589502165 C1.20690544,0.0589502165 1.36210701,0.117689394 1.46182292,0.234816017 C1.56136296,0.352118506 1.64041464,0.527984307 1.69924175,0.76241342 L3.28203396,7.02323593 L3.35238028,7.02323593 L5.0934517,0.76241342 C5.16388596,0.527984307 5.24566356,0.352118506 5.33975176,0.234816017 C5.4334003,0.117689394 5.58596388,0.0589502165 5.79691491,0.0589502165 L6.67624391,0.0589502165 C6.88728287,0.0589502165 7.03958266,0.117689394 7.13349499,0.234816017 C7.22723147,0.352118506 7.3093608,0.527984307 7.37970712,0.76241342 L9.12086648,7.02323593 L9.1912128,7.02323593 L10.774005,0.76241342 C10.8324804,0.527984307 10.91162,0.352118506 11.0114238,0.234816017 C11.1108759,0.117689394 11.2663413,0.0589502165 11.4774682,0.0589502165 L11.7763521,0.0589502165 C11.9873911,0.0589502165 12.1396909,0.123580898 12.2336032,0.252402597 C12.3273397,0.381488095 12.3449263,0.557353896 12.2864509,0.78 L10.2990794,7.9377381 C10.2287331,8.17243101 10.1466038,8.34829681 10.0528673,8.4653355 C9.95895495,8.58263799 9.8067431,8.6412013 9.59561621,8.6412013 L8.7162872,8.6412013 C8.47007508,8.6412013 8.29420928,8.58263799 8.1886898,8.4653355 C8.08317032,8.34829681 8.00104099,8.17243101 7.94247768,7.9377381 L6.23657941,1.60656926 L6.16623309,1.60656926 L4.46042275,7.9377381 C4.40159564,8.17243101 4.31964218,8.34829681 4.2141227,8.4653355 C4.10869115,8.58263799 3.93282535,8.6412013 3.6865253,8.6412013 L2.80719629,8.6412013 C2.59624527,8.6412013 2.44368168,8.58263799 2.35003314,8.4653355 C2.25594494,8.34829681 2.17416734,8.17243101 2.10373309,7.9377381" id="path-1"></path>
        <path d="M14.7660708,6.20544237 C14.7660708,6.54618236 14.900696,6.82923837 15.1705621,7.05452246 C15.4400764,7.27989448 15.8446557,7.39253653 16.3839482,7.39253653 C17.0523262,7.39253653 17.6296057,7.1946875 18.1163143,6.79898945 C18.6026711,6.4032914 18.8460694,5.80974432 18.8460694,5.01808442 L18.8460694,4.2432197 C18.764028,4.34214421 18.6439117,4.42181142 18.4856324,4.48222132 C18.3273532,4.54271916 18.1426062,4.58941153 17.9316552,4.62238636 L16.3136898,4.88618506 C15.7509192,4.97411797 15.3521435,5.13072646 15.1178024,5.35609848 C14.8831094,5.58138258 14.7660708,5.86470238 14.7660708,6.20544237 L14.7660708,6.20544237 Z M18.9165037,7.3098796 C18.6702915,7.75385281 18.2364306,8.08975649 17.7557894,8.31723891 C17.2748843,8.54498512 16.7239847,8.65877029 16.1026508,8.65877029 C15.1881487,8.65877029 14.4786181,8.44992965 13.9746746,8.03224838 C13.4704674,7.6145671 13.2183638,7.0661296 13.2183638,6.38658415 C13.2183638,5.7182941 13.438196,5.17522051 13.8778605,4.75753923 C14.317525,4.33985795 15.0355851,4.04756899 16.0322166,3.88049648 L17.7206162,3.61309253 C18.1778673,3.53535985 18.4795651,3.45753923 18.6262371,3.37945482 C18.7727334,3.30154627 18.8460694,3.16788826 18.8460694,2.97830492 C18.8460694,2.45484037 18.690604,2.04533685 18.380113,1.75032197 C18.0692702,1.45521916 17.6150088,1.30757982 17.017153,1.30757982 C16.3839482,1.30757982 15.9470975,1.42083739 15.7069528,1.64664908 C15.4665442,1.87263663 15.2700142,2.11216585 15.1178024,2.36550054 C15.0589752,2.4760322 14.9798356,2.58067235 14.8803835,2.67986066 C14.7805797,2.77904897 14.6135951,2.82855519 14.379166,2.82855519 L14.1329539,2.82855519 C13.898261,2.82855519 13.7548424,2.75222944 13.7019947,2.59905032 C13.6493229,2.44631088 13.6463332,2.28477814 13.6932894,2.11471591 C13.8806744,1.50296672 14.2705689,1.00456304 14.8627969,0.619241071 C15.4546733,0.234007035 16.1729972,0.0413460498 17.017153,0.0413460498 C18.1426062,0.0413460498 18.98685,0.302418831 19.5495326,0.823948864 C20.1123911,1.34574269 20.3937764,2.07092532 20.3937764,2.99976055 L20.3937764,8.05642992 C20.3937764,8.25155303 20.3437426,8.39778544 20.2442904,8.49503923 C20.1444866,8.59255682 19.9950886,8.64118371 19.7958327,8.64118371 L19.5144474,8.64118371 C19.3149276,8.64118371 19.1654417,8.58323593 19.0659017,8.46725244 C18.9662737,8.35126894 18.9165037,8.17707386 18.9165037,7.94484307 L18.9165037,7.3098796 Z" id="path-2"></path>
        <path d="M24.6847173,9.43697646 L24.8781696,8.89865124 L21.7654329,0.788248106 C21.6832156,0.568415855 21.6862054,0.392022457 21.7741383,0.25871618 C21.8620712,0.125673701 22.0054897,0.0590205628 22.2050974,0.0590205628 L22.6271753,0.0590205628 C22.8381264,0.0590205628 22.9992194,0.0996455628 23.1108063,0.180631764 C23.2220414,0.261705898 23.3244832,0.429569805 23.4185714,0.684135552 L25.5816328,6.86660985 L25.6519792,6.86660985 L27.832803,0.684135552 C27.9031494,0.475822511 27.9880046,0.31965368 28.0877205,0.215277327 C28.1872606,0.111164773 28.3428139,0.0590205628 28.5537649,0.0590205628 L28.8879978,0.0590205628 C29.0871659,0.0590205628 29.2308482,0.125673701 29.3187811,0.258979978 C29.406714,0.392550054 29.4094399,0.569207251 29.3276623,0.789303301 L25.950951,9.86705628 C25.7281291,10.4930506 25.3734077,11.0898512 24.8870509,11.6581615 C24.4003423,12.2261201 23.7232589,12.5102313 22.8557129,12.5102313 L22.6271753,12.5102313 C22.4394386,12.5102313 22.2899527,12.4662649 22.1786296,12.378332 C22.0670427,12.2903991 22.011645,12.1525203 22.011645,11.9650473 L22.011645,11.7188352 C22.011645,11.5310985 22.0583374,11.3934835 22.1522497,11.3055506 C22.2459862,11.2176177 22.3866788,11.1736512 22.5743277,11.1736512 L22.6271753,11.1736512 C23.0959456,11.1736512 23.500349,11.040345 23.8405614,10.7744359 C24.18051,10.5079113 24.4618953,10.0620915 24.6847173,9.43697646" id="path-3"></path>
        <path d="M31.7895901,4.35009334 C31.7895901,5.24182089 32.0296469,5.96014475 32.5105519,6.504977 C32.9911932,7.04989719 33.6185944,7.32222538 34.392404,7.32222538 C35.1661255,7.32222538 35.793263,7.04989719 36.274168,6.504977 C36.7547213,5.96014475 36.9951299,5.24182089 36.9951299,4.35009334 C36.9951299,3.42565476 36.7547213,2.69915314 36.274168,2.17076434 C35.793263,1.64228761 35.1661255,1.37796131 34.392404,1.37796131 C33.6185944,1.37796131 32.9911932,1.6505533 32.5105519,2.19547348 C32.0296469,2.74030574 31.7895901,3.4586296 31.7895901,4.35009334 M30.1716247,4.35009334 C30.1716247,3.04868642 30.5700487,2.00501082 31.3674242,1.21959416 C32.1647119,0.434353355 33.1727746,0.0413812229 34.392404,0.0413812229 C35.6820279,0.0413812229 36.7077652,0.434353355 37.4700555,1.21959416 C38.232082,2.00501082 38.6131832,3.04868642 38.6131832,4.35009334 C38.6131832,5.65176407 38.2144075,6.69543966 37.4172957,7.4807684 C36.6198323,8.26609713 35.6115936,8.65880547 34.392404,8.65880547 C33.1025162,8.65880547 32.076779,8.26609713 31.3147524,7.4807684 C30.5524621,6.69543966 30.1716247,5.65176407 30.1716247,4.35009334" id="path-4"></path>
        <path d="M40.6532089,8.00806683 L40.6532089,0.656876353 C40.6532089,0.457708333 40.702891,0.308222403 40.8026948,0.208418561 C40.9021469,0.10896645 41.0516328,0.0590205628 41.2511526,0.0590205628 L41.5325379,0.0590205628 C41.7317938,0.0590205628 41.8812798,0.116352814 41.9809957,0.231017316 C42.0804478,0.345505952 42.1304816,0.517238907 42.1304816,0.746479978 L42.1304816,1.51474973 L42.2008279,1.51474973 C42.4469521,1.02373241 42.795694,0.655557359 43.2472294,0.409872835 C43.6984131,0.164188312 44.2408712,0.0413460498 44.8739881,0.0413460498 C45.7181439,0.0413460498 46.4567803,0.302418831 47.0898972,0.823948864 C47.7229261,1.34574269 48.0395725,2.25452922 48.0395725,3.55022051 L48.0395725,8.02204816 C48.0395725,8.22851461 47.9867248,8.38318858 47.8812933,8.48642181 C47.7757738,8.5898309 47.6174946,8.64118371 47.4064556,8.64118371 L47.1250703,8.64118371 C46.9140314,8.64118371 46.7556642,8.5898309 46.6502327,8.48703734 C46.5447132,8.38424378 46.4918655,8.2300974 46.4918655,8.02451028 L46.4918655,3.776296 C46.4918655,2.88544778 46.31301,2.26305871 45.9555628,1.90912879 C45.5977638,1.55519886 45.1202002,1.37801407 44.5222565,1.37801407 C43.8538785,1.37801407 43.2999892,1.64638528 42.8603247,2.18312771 C42.4206602,2.71995806 42.2008279,3.43370942 42.2008279,4.3242059 L42.2008279,8.02451028 C42.2008279,8.2300974 42.1480682,8.38424378 42.0425487,8.48703734 C41.9370292,8.5898309 41.77875,8.64118371 41.5676231,8.64118371 L41.2863258,8.64118371 C41.0752868,8.64118371 40.9170076,8.5885119 40.8114881,8.48290449 C40.7059686,8.37738501 40.6532089,8.21910579 40.6532089,8.00806683" id="path-5"></path>
        <path d="M51.5568006,6.20544237 C51.5568006,6.54618236 51.6914259,6.82923837 51.9612919,7.05452246 C52.2308063,7.27989448 52.6353856,7.39253653 53.174678,7.39253653 C53.843056,7.39253653 54.4203355,7.1946875 54.9070441,6.79898945 C55.393401,6.4032914 55.6367992,5.80974432 55.6367992,5.01808442 L55.6367992,4.2432197 C55.5547578,4.34214421 55.4346415,4.42181142 55.2763623,4.48222132 C55.1180831,4.54271916 54.933336,4.58941153 54.722385,4.62238636 L53.1044196,4.88618506 C52.5416491,4.97411797 52.1428734,5.13072646 51.9085322,5.35609848 C51.6738393,5.58138258 51.5568006,5.86470238 51.5568006,6.20544237 L51.5568006,6.20544237 Z M55.7072335,7.3098796 C55.4610214,7.75385281 55.0271604,8.08975649 54.5465192,8.31723891 C54.0656142,8.54498512 53.5147146,8.65877029 52.8933807,8.65877029 C51.9788785,8.65877029 51.2693479,8.44992965 50.7654045,8.03224838 C50.2611972,7.6145671 50.0090936,7.0661296 50.0090936,6.38658415 C50.0090936,5.7182941 50.2289259,5.17522051 50.6685904,4.75753923 C51.1082549,4.33985795 51.8263149,4.04756899 52.8229464,3.88049648 L54.511346,3.61309253 C54.9685971,3.53535985 55.2702949,3.45753923 55.416967,3.37945482 C55.5634632,3.30154627 55.6367992,3.16788826 55.6367992,2.97830492 C55.6367992,2.45484037 55.4813339,2.04533685 55.1708428,1.75032197 C54.86,1.45521916 54.4057386,1.30757982 53.8078828,1.30757982 C53.174678,1.30757982 52.7378274,1.42083739 52.4976826,1.64664908 C52.2572741,1.87263663 52.060744,2.11216585 51.9085322,2.36550054 C51.8497051,2.4760322 51.7705655,2.58067235 51.6711134,2.67986066 C51.5713095,2.77904897 51.4043249,2.82855519 51.1698958,2.82855519 L50.9236837,2.82855519 C50.6889908,2.82855519 50.5455722,2.75222944 50.4927246,2.59905032 C50.4400528,2.44631088 50.437063,2.28477814 50.4840192,2.11471591 C50.6714042,1.50296672 51.0612987,1.00456304 51.6535268,0.619241071 C52.2454031,0.234007035 52.963727,0.0413460498 53.8078828,0.0413460498 C54.933336,0.0413460498 55.7775798,0.302418831 56.3402624,0.823948864 C56.9031209,1.34574269 57.1845062,2.07092532 57.1845062,2.99976055 L57.1845062,8.05642992 C57.1845062,8.25155303 57.1344724,8.39778544 57.0350203,8.49503923 C56.9352165,8.59255682 56.7858185,8.64118371 56.5865625,8.64118371 L56.3051772,8.64118371 C56.1056575,8.64118371 55.9561715,8.58323593 55.8566315,8.46725244 C55.7570035,8.35126894 55.7072335,8.17707386 55.7072335,7.94484307 L55.7072335,7.3098796 Z" id="path-6"></path>
        <path d="M59.7167891,8.00806683 L59.7167891,0.656876353 C59.7167891,0.457708333 59.7664712,0.308222403 59.866275,0.208418561 C59.9657271,0.10896645 60.1152131,0.0590205628 60.3147328,0.0590205628 L60.5961181,0.0590205628 C60.7953741,0.0590205628 60.94486,0.116352814 61.0445759,0.231281115 C61.144028,0.346121483 61.1940618,0.518382035 61.1940618,0.748062771 L61.1940618,1.51861878 L61.2467336,1.51861878 C61.4578605,1.04984848 61.7537547,0.686245942 62.1349439,0.428250812 C62.5157812,0.170519481 62.9760221,0.0413460498 63.5154904,0.0413460498 C63.6209219,0.0413460498 63.7265294,0.0474134199 63.8320488,0.0590205628 C63.9375683,0.0707156385 64.0312169,0.0825865801 64.1134341,0.09410579 C64.277429,0.14079816 64.4063386,0.2138704 64.5002509,0.313410444 C64.5940754,0.412862554 64.6173776,0.556017316 64.5706852,0.743226461 L64.4299926,1.3045901 C64.3948194,1.43323593 64.3447856,1.52389475 64.2804187,1.57656656 C64.2158759,1.62941423 64.1485193,1.6555303 64.078261,1.6555303 C63.9375683,1.6555303 63.8026792,1.63266775 63.6737696,1.58711851 C63.5445962,1.54148133 63.3747978,1.51861878 63.1637588,1.51861878 C62.5306419,1.51861878 62.0558042,1.78980384 61.7392458,2.33199811 C61.4225994,2.87419237 61.2644081,3.47046537 61.2644081,4.12116883 L61.2644081,8.02477408 C61.2644081,8.2303612 61.2116484,8.38424378 61.1061289,8.48703734 C61.0006094,8.5898309 60.8423302,8.64118371 60.6312033,8.64118371 L60.349906,8.64118371 C60.138867,8.64118371 59.9805878,8.5885119 59.8750683,8.48290449 C59.7695488,8.37738501 59.7167891,8.21910579 59.7167891,8.00806683" id="path-7"></path>
        <path d="M66.6104207,6.20544237 C66.6104207,6.54618236 66.745046,6.82923837 67.0149121,7.05452246 C67.2844264,7.27989448 67.6890057,7.39253653 68.2282982,7.39253653 C68.8966761,7.39253653 69.4739556,7.1946875 69.9606642,6.79898945 C70.4470211,6.4032914 70.6904194,5.80974432 70.6904194,5.01808442 L70.6904194,4.2432197 C70.608378,4.34214421 70.4882616,4.42181142 70.3299824,4.48222132 C70.1717032,4.54271916 69.9869562,4.58941153 69.7760051,4.62238636 L68.1580398,4.88618506 C67.5952692,4.97411797 67.1964935,5.13072646 66.9621523,5.35609848 C66.7274594,5.58138258 66.6104207,5.86470238 66.6104207,6.20544237 L66.6104207,6.20544237 Z M70.7608536,7.3098796 C70.5146415,7.75385281 70.0807806,8.08975649 69.6001393,8.31723891 C69.1192343,8.54498512 68.5683347,8.65877029 67.9470008,8.65877029 C67.0324986,8.65877029 66.3229681,8.44992965 65.8190246,8.03224838 C65.3148174,7.6145671 65.0627137,7.0661296 65.0627137,6.38658415 C65.0627137,5.7182941 65.282546,5.17522051 65.7222105,4.75753923 C66.161875,4.33985795 66.8799351,4.04756899 67.8765666,3.88049648 L69.5649662,3.61309253 C70.0222173,3.53535985 70.323915,3.45753923 70.4705871,3.37945482 C70.6170833,3.30154627 70.6904194,3.16788826 70.6904194,2.97830492 C70.6904194,2.45484037 70.534954,2.04533685 70.2244629,1.75032197 C69.9136201,1.45521916 69.4593588,1.30757982 68.861503,1.30757982 C68.2282982,1.30757982 67.7914475,1.42083739 67.5513028,1.64664908 C67.3108942,1.87263663 67.1143642,2.11216585 66.9621523,2.36550054 C66.9033252,2.4760322 66.8241856,2.58067235 66.7247335,2.67986066 C66.6249297,2.77904897 66.4579451,2.82855519 66.223516,2.82855519 L65.9773038,2.82855519 C65.7426109,2.82855519 65.5991924,2.75222944 65.5463447,2.59905032 C65.4936729,2.44631088 65.4906832,2.28477814 65.5376393,2.11471591 C65.7250244,1.50296672 66.1149188,1.00456304 66.7071469,0.619241071 C67.2990233,0.234007035 68.0173471,0.0413460498 68.861503,0.0413460498 C69.9869562,0.0413460498 70.8311999,0.302418831 71.3938826,0.823948864 C71.9567411,1.34574269 72.2381264,2.07092532 72.2381264,2.99976055 L72.2381264,8.05642992 C72.2381264,8.25155303 72.1880925,8.39778544 72.0886404,8.49503923 C71.9888366,8.59255682 71.8394386,8.64118371 71.6401826,8.64118371 L71.3587973,8.64118371 C71.1592776,8.64118371 71.0097917,8.58323593 70.9102516,8.46725244 C70.8106236,8.35126894 70.7608536,8.17707386 70.7608536,7.94484307 L70.7608536,7.3098796 Z" id="path-8"></path>
    </defs>
    <g id="Landing-Page-Advanced" stroke="none" stroke-width="1" fill="none" fill-rule="evenodd">
        <g id="Landing-Page-1.5---Intro" transform="translate(-269.000000, -17.000000)" fill="#FFFFFF">
            <g id="Navbar-2" transform="translate(-0.000000, 0.000000)">
                <g id="Logo+logotype(big)" transform="translate(262.000000, 5.000000)">
                    <rect id="Base" opacity="0" x="0" y="0" width="129" height="50"></rect>
                    <path d="M39.8994542,21.7312905 C38.791924,23.1584663 33.8718327,26.0753832 25.6281094,28.2843663 C21.1654779,29.4801765 16.7518731,30.1657922 13.519004,30.1657922 C11.6054699,30.1657922 10.5227879,29.9220773 9.98133533,29.7064089 C9.7166351,29.6009181 9.63331181,29.273733 9.80829071,29.0489141 C10.2859117,28.4353118 11.4717062,27.5465259 13.3167962,26.558052 C13.440814,26.4916181 13.5942182,26.5571592 13.6368469,26.6912173 C13.7633942,27.0893744 13.9435064,27.5056836 14.0924468,27.8234206 C14.2460741,28.1510521 14.5794416,28.3577188 14.940782,28.337558 C17.8440034,28.1754534 21.4777914,27.547865 25.166186,26.5599862 C29.4098707,25.4226497 32.6218346,24.1325078 34.8404659,23.0211348 C35.1704857,22.8558312 35.3647331,22.5095268 35.3302878,22.1420202 C35.3035797,21.8569421 35.2482293,21.4558093 35.139165,20.9031358 C35.1124569,20.7677386 35.2140816,20.6375489 35.3520114,20.6327877 C35.6379888,20.6229677 35.9171218,20.6173138 36.1866578,20.6173138 C38.103019,20.6173138 39.1862217,20.8616983 39.7269303,21.0775898 C39.989845,21.1826343 40.0730195,21.5075876 39.8994542,21.7312905 M42.6230841,20.629812 C42.158036,18.8940496 40.0526351,18.0503465 36.1866578,18.0503465 C35.596476,18.0503465 34.9679803,18.0769796 34.3214809,18.1171524 C34.2330243,18.1226575 34.1492546,18.077054 34.1093785,17.9978987 C33.6682114,17.1222061 30.8392371,12.0739735 24.2186812,12.000621 C18.3490764,11.9355262 13.0593124,16.9967033 13.0593124,23.159731 C13.0593124,23.230331 13.0811848,23.463482 13.0968079,23.620751 C13.1058842,23.7127021 13.0561878,23.7992224 12.9734597,23.8402879 C9.25285173,25.6895012 6.48012058,27.9045846 7.08242891,30.1528477 C7.54770019,31.8888332 9.65324989,32.7327595 13.519004,32.7327595 C14.4790817,32.7327595 15.5241938,32.674137 16.6250283,32.5700597 C16.9174038,32.5423851 17.2065058,32.6572495 17.3953223,32.8821428 C19.102185,34.9154814 21.0808155,37.2721367 21.0883294,37.2805432 C21.8560196,38.2349447 22.9967303,38.782485 24.2186068,38.782485 L24.2186812,38.782485 L24.2186812,38.782485 C24.2194995,38.782485 24.2203179,38.7823362 24.2211362,38.7823362 C25.4418224,38.7815923 26.5817891,38.2343495 27.3316987,37.3015223 C27.3624241,37.2657388 33.4508269,30.01321 33.4728481,29.9861305 C33.9717463,29.3885974 34.3997453,28.7426337 34.7668141,28.0652757 C34.8612967,27.8908217 35.0100139,27.750812 35.1911677,27.6698713 C36.1869554,27.2249948 37.1119182,26.76762 37.947755,26.3036242 C41.5773024,24.2889585 43.1064335,22.4330497 42.6230841,20.629812" id="Logo"></path>
                    <g id="Logotype" transform="translate(50.000000, 20.577381)">
                        <g id="Fill-4">
                            <use xlink:href="#path-1"></use>
                            <use xlink:href="#path-1"></use>
                        </g>
                        <g id="Fill-6">
                            <use xlink:href="#path-2"></use>
                            <use xlink:href="#path-2"></use>
                        </g>
                        <g id="Fill-8">
                            <use xlink:href="#path-3"></use>
                            <use xlink:href="#path-3"></use>
                        </g>
                        <g id="Fill-10">
                            <use xlink:href="#path-4"></use>
                            <use xlink:href="#path-4"></use>
                        </g>
                        <g id="Fill-12">
                            <use xlink:href="#path-5"></use>
                            <use xlink:href="#path-5"></use>
                        </g>
                        <g id="Fill-14">
                            <use xlink:href="#path-6"></use>
                            <use xlink:href="#path-6"></use>
                        </g>
                        <g id="Fill-16">
                            <use xlink:href="#path-7"></use>
                            <use xlink:href="#path-7"></use>
                        </g>
                        <g id="Fill-18">
                            <use xlink:href="#path-8"></use>
                            <use xlink:href="#path-8"></use>
                        </g>
                    </g>
                </g>
            </g>
        </g>
    </g>
</svg>