<?xml version="1.0" encoding="UTF-8" standalone="no"?>
<svg width="30px" height="25px" viewBox="0 0 30 25" version="1.1" xmlns="http://www.w3.org/2000/svg" xmlns:xlink="http://www.w3.org/1999/xlink" xmlns:sketch="http://www.bohemiancoding.com/sketch/ns">
    <!-- Generator: Sketch 3.4.2 (15857) - http://www.bohemiancoding.com/sketch -->
    <title>Twitter_logo</title>
    <desc>Created with Sketch.</desc>
    <defs></defs>
    <g id="Landing-Page" stroke="none" stroke-width="1" fill="none" fill-rule="evenodd" sketch:type="MSPage">
        <g id="Landing-Page-v2.1" sketch:type="MSArtboardGroup" transform="translate(-944.000000, -262.000000)" fill="#FFFFFF">
            <g id="TwitterLogo_white" sketch:type="MSLayerGroup" transform="translate(944.000000, 262.000000)">
                <path d="M29.6956465,2.94610271 C28.603037,3.43065693 27.4288538,3.75814651 26.1964503,3.90543535 C27.4543796,3.15139468 28.420338,1.95744265 28.875239,0.534845325 C27.698123,1.23294665 26.3942475,1.73998523 25.0065172,2.01327338 C23.8951164,0.82920577 22.3117614,0.0892857143 20.5595021,0.0892857143 C17.1947775,0.0892857143 14.4668926,2.81706204 14.4668926,6.18156934 C14.4668926,6.65906326 14.5208768,7.12406587 14.6247176,7.56995134 C9.56128345,7.31588895 5.07212374,4.89040233 2.06725756,1.20448818 C1.54283976,2.10429701 1.24239659,3.15085158 1.24239659,4.26735749 C1.24239659,6.38099583 2.31806135,8.24578554 3.95279371,9.33828641 C2.95403198,9.30667796 2.01468544,9.03262948 1.19319169,8.57631648 C1.19275721,8.60173358 1.19275721,8.6272593 1.19275721,8.65289364 C1.19275721,11.6047532 3.29281804,14.0671707 6.07990094,14.6267814 C5.56862617,14.7660323 5.03041363,14.8404371 4.47471324,14.8404371 C4.08216024,14.8404371 3.70046924,14.8023114 3.32855405,14.7311653 C4.10377563,17.1516554 6.35373219,18.9130388 9.01970368,18.9622437 C6.93463243,20.5962157 4.30765554,21.570212 1.45333681,21.570212 C0.96161366,21.570212 0.476624957,21.5414277 0,21.4851625 C2.69616788,23.2137426 5.89861401,24.2222802 9.33915537,24.2222802 C20.5452729,24.2222802 26.6731839,14.9388469 26.6731839,6.88803441 C26.6731839,6.62387035 26.6673184,6.36111835 26.6555874,6.09988704 C27.8458464,5.24091936 28.8788234,4.16786149 29.6956465,2.94610271" id="Twitter_logo" sketch:type="MSShapeGroup"></path>
            </g>
        </g>
    </g>
</svg>