<svg xmlns="http://www.w3.org/2000/svg" width="118" height="27" viewBox="0 0 118 27">
  <g fill="none" fill-rule="evenodd">
    <g fill="#6B6DFF" fill-rule="nonzero" transform="translate(1)">
      <path d="M33.100181 9.7312905C31.9926509 11.1584663 27.0725596 14.0753832 18.8288363 16.2843663 14.3662047 17.4801765 9.9526 18.1657922 6.7197309 18.1657922 4.8061967 18.1657922 3.7235148 17.9220773 3.1820622 17.7064089 2.91736197 17.6009181 2.83403869 17.273733 3.00901759 17.0489141 3.48663857 16.4353118 4.6724331 15.5465259 6.5175231 14.558052 6.6415409 14.4916181 6.794945 14.5571592 6.8375738 14.6912173 6.9641211 15.0893744 7.1442333 15.5056836 7.2931736 15.8234206 7.446801 16.1510521 7.7801685 16.3577188 8.1415089 16.337558 11.0447302 16.1754534 14.6785183 15.547865 18.3669128 14.5599862 22.6105976 13.4226497 25.8225615 12.1325078 28.0411928 11.0211348 28.3712125 10.8558312 28.5654599 10.5095268 28.5310147 10.1420202 28.5043066 9.8569421 28.4489561 9.4558093 28.3398919 8.9031358 28.3131838 8.7677386 28.4148085 8.6375489 28.5527383 8.6327877 28.8387157 8.6229677 29.1178487 8.6173138 29.3873846 8.6173138 31.3037458 8.6173138 32.3869486 8.8616983 32.9276572 9.0775898 33.1905719 9.1826343 33.2737464 9.5075876 33.100181 9.7312905M31.6847297 13.9981819C34.9280158 12.1007675 36.2826367 10.3415588 35.823811 8.629812 35.3587629 6.8940496 33.253362 6.0503465 29.3873846 6.0503465 28.7972028 6.0503465 28.1687072 6.0769796 27.5222078 6.1171524 27.4337512 6.1226575 27.3499815 6.077054 27.3101054 5.9978987 26.8689383 5.1222061 24.0399639.0739735 17.419408.000621 11.5498033-.0644738 6.2600393 4.9967033 6.2600393 11.159731 6.2600393 11.230331 6.2819117 11.463482 6.2975348 11.620751 6.3066111 11.7127021 6.2569147 11.7992224 6.1741865 11.8402879 2.45357861 13.6895012-.31915255 15.9045846.28315578 18.1528477.74842706 19.8888332 2.85397676 20.7327595 6.7197309 20.7327595 7.6798086 20.7327595 8.7249207 20.674137 9.8257552 20.5700597 10.1181306 20.5423851 10.4072327 20.6572495 10.5960492 20.8821428 12.3029119 22.9154814 14.2815423 25.2721367 14.2890563 25.2805432 15.0567465 26.2349447 16.1974572 26.782485 17.4193336 26.782485L17.419408 26.782485C17.4202264 26.782485 17.4210447 26.7823362 17.4218631 26.7823362 18.6425492 26.7815923 19.782516 26.2343495 20.5324255 25.3015223 20.5455486 25.2862389 21.6637128 23.9544772 22.9422996 22.4314682 22.8489755 21.9688355 22.8 21.4901371 22.8 21 22.8 17.0235498 26.0235498 13.8 30 13.8 30.5801609 13.8 31.1442952 13.8686183 31.6847297 13.9981819zM45.6037331 16.5147381L43.598863 9.357C43.5400358 9.1343539 43.5576224 8.95848809 43.6517106 8.8294026 43.7453592 8.7005809 43.8979228 8.63595022 44.1088738 8.63595022L44.4957785 8.63595022C44.7069054 8.63595022 44.862107 8.69468939 44.9618229 8.81181602 45.061363 8.92911851 45.1404146 9.10498431 45.1992418 9.33941342L46.782034 15.6002359 46.8523803 15.6002359 48.5934517 9.33941342C48.663886 9.10498431 48.7456636 8.92911851 48.8397518 8.81181602 48.9334003 8.69468939 49.0859639 8.63595022 49.2969149 8.63595022L50.1762439 8.63595022C50.3872829 8.63595022 50.5395827 8.69468939 50.633495 8.81181602 50.7272315 8.92911851 50.8093608 9.10498431 50.8797071 9.33941342L52.6208665 15.6002359 52.6912128 15.6002359 54.274005 9.33941342C54.3324804 9.10498431 54.41162 8.92911851 54.5114238 8.81181602 54.6108759 8.69468939 54.7663413 8.63595022 54.9774682 8.63595022L55.2763521 8.63595022C55.4873911 8.63595022 55.6396909 8.7005809 55.7336032 8.8294026 55.8273397 8.95848809 55.8449263 9.1343539 55.7864509 9.357L53.7990794 16.5147381C53.7287331 16.749431 53.6466038 16.9252968 53.5528673 17.0423355 53.458955 17.159638 53.3067431 17.2182013 53.0956162 17.2182013L52.2162872 17.2182013C51.9700751 17.2182013 51.7942093 17.159638 51.6886898 17.0423355 51.5831703 16.9252968 51.501041 16.749431 51.4424777 16.5147381L49.7365794 10.1835693 49.6662331 10.1835693 47.9604228 16.5147381C47.9015956 16.749431 47.8196422 16.9252968 47.7141227 17.0423355 47.6086912 17.159638 47.4328254 17.2182013 47.1865253 17.2182013L46.3071963 17.2182013C46.0962453 17.2182013 45.9436817 17.159638 45.8500331 17.0423355 45.7559449 16.9252968 45.6741673 16.749431 45.6037331 16.5147381M58.2660708 14.7824424C58.2660708 15.1231824 58.400696 15.4062384 58.6705621 15.6315225 58.9400764 15.8568945 59.3446557 15.9695365 59.8839482 15.9695365 60.5523262 15.9695365 61.1296057 15.7716875 61.6163143 15.3759894 62.1026711 14.9802914 62.3460694 14.3867443 62.3460694 13.5950844L62.3460694 12.8202197C62.264028 12.9191442 62.1439117 12.9988114 61.9856324 13.0592213 61.8273532 13.1197192 61.6426062 13.1664115 61.4316552 13.1993864L59.8136898 13.4631851C59.2509192 13.551118 58.8521435 13.7077265 58.6178024 13.9330985 58.3831094 14.1583826 58.2660708 14.4417024 58.2660708 14.7824424L58.2660708 14.7824424zM62.4165037 15.8868796C62.1702915 16.3308528 61.7364306 16.6667565 61.2557894 16.8942389 60.7748843 17.1219851 60.2239847 17.2357703 59.6026508 17.2357703 58.6881487 17.2357703 57.9786181 17.0269296 57.4746746 16.6092484 56.9704674 16.1915671 56.7183638 15.6431296 56.7183638 14.9635841 56.7183638 14.2952941 56.938196 13.7522205 57.3778605 13.3345392 57.817525 12.9168579 58.5355851 12.624569 59.5322166 12.4574965L61.2206162 12.1900925C61.6778673 12.1123598 61.9795651 12.0345392 62.1262371 11.9564548 62.2727334 11.8785463 62.3460694 11.7448883 62.3460694 11.5553049 62.3460694 11.0318404 62.190604 10.6223368 61.880113 10.327322 61.5692702 10.0322192 61.1150088 9.88457982 60.517153 9.88457982 59.8839482 9.88457982 59.4470975 9.99783739 59.2069528 10.2236491 58.9665442 10.4496366 58.7700142 10.6891658 58.6178024 10.9425005 58.5589752 11.0530322 58.4798356 11.1576723 58.3803835 11.2568607 58.2805797 11.356049 58.1135951 11.4055552 57.879166 11.4055552L57.6329539 11.4055552C57.398261 11.4055552 57.2548424 11.3292294 57.2019947 11.1760503 57.1493229 11.0233109 57.1463332 10.8617781 57.1932894 10.6917159 57.3806744 10.0799667 57.7705689 9.58156304 58.3627969 9.19624107 58.9546733 8.81100703 59.6729972 8.61834605 60.517153 8.61834605 61.6426062 8.61834605 62.48685 8.87941883 63.0495326 9.40094886 63.6123911 9.92274269 63.8937764 10.6479253 63.8937764 11.5767605L63.8937764 16.6334299C63.8937764 16.828553 63.8437426 16.9747854 63.7442904 17.0720392 63.6444866 17.1695568 63.4950886 17.2181837 63.2958327 17.2181837L63.0144474 17.2181837C62.8149276 17.2181837 62.6654417 17.1602359 62.5659017 17.0442524 62.4662737 16.9282689 62.4165037 16.7540739 62.4165037 16.5218431L62.4165037 15.8868796zM68.1847173 18.0139765L68.3781696 17.4756512 65.2654329 9.36524811C65.1832156 9.14541585 65.1862054 8.96902246 65.2741383 8.83571618 65.3620712 8.7026737 65.5054897 8.63602056 65.7050974 8.63602056L66.1271753 8.63602056C66.3381264 8.63602056 66.4992194 8.67664556 66.6108063 8.75763176 66.7220414 8.8387059 66.8244832 9.0065698 66.9185714 9.26113555L69.0816328 15.4436098 69.1519792 15.4436098 71.332803 9.26113555C71.4031494 9.05282251 71.4880046 8.89665368 71.5877205 8.79227733 71.6872606 8.68816477 71.8428139 8.63602056 72.0537649 8.63602056L72.3879978 8.63602056C72.5871659 8.63602056 72.7308482 8.7026737 72.8187811 8.83597998 72.906714 8.96955005 72.9094399 9.14620725 72.8276623 9.3663033L69.450951 18.4440563C69.2281291 19.0700506 68.8734077 19.6668512 68.3870509 20.2351615 67.9003423 20.8031201 67.2232589 21.0872313 66.3557129 21.0872313L66.1271753 21.0872313C65.9394386 21.0872313 65.7899527 21.0432649 65.6786296 20.955332 65.5670427 20.8673991 65.511645 20.7295203 65.511645 20.5420473L65.511645 20.2958352C65.511645 20.1080985 65.5583374 19.9704835 65.6522497 19.8825506 65.7459862 19.7946177 65.8866788 19.7506512 66.0743277 19.7506512L66.1271753 19.7506512C66.5959456 19.7506512 67.000349 19.617345 67.3405614 19.3514359 67.68051 19.0849113 67.9618953 18.6390915 68.1847173 18.0139765M75.2895901 12.9270933C75.2895901 13.8188209 75.5296469 14.5371447 76.0105519 15.081977 76.4911932 15.6268972 77.1185944 15.8992254 77.892404 15.8992254 78.6661255 15.8992254 79.293263 15.6268972 79.774168 15.081977 80.2547213 14.5371447 80.4951299 13.8188209 80.4951299 12.9270933 80.4951299 12.0026548 80.2547213 11.2761531 79.774168 10.7477643 79.293263 10.2192876 78.6661255 9.95496131 77.892404 9.95496131 77.1185944 9.95496131 76.4911932 10.2275533 76.0105519 10.7724735 75.5296469 11.3173057 75.2895901 12.0356296 75.2895901 12.9270933M73.6716247 12.9270933C73.6716247 11.6256864 74.0700487 10.5820108 74.8674242 9.79659416 75.6647119 9.01135335 76.6727746 8.61838122 77.892404 8.61838122 79.1820279 8.61838122 80.2077652 9.01135335 80.9700555 9.79659416 81.732082 10.5820108 82.1131832 11.6256864 82.1131832 12.9270933 82.1131832 14.2287641 81.7144075 15.2724397 80.9172957 16.0577684 80.1198323 16.8430971 79.1115936 17.2358055 77.892404 17.2358055 76.6025162 17.2358055 75.576779 16.8430971 74.8147524 16.0577684 74.0524621 15.2724397 73.6716247 14.2287641 73.6716247 12.9270933M84.1532089 16.5850668L84.1532089 9.23387635C84.1532089 9.03470833 84.202891 8.8852224 84.3026948 8.78541856 84.4021469 8.68596645 84.5516328 8.63602056 84.7511526 8.63602056L85.0325379 8.63602056C85.2317938 8.63602056 85.3812798 8.69335281 85.4809957 8.80801732 85.5804478 8.92250595 85.6304816 9.09423891 85.6304816 9.32347998L85.6304816 10.0917497 85.7008279 10.0917497C85.9469521 9.60073241 86.295694 9.23255736 86.7472294 8.98687283 87.1984131 8.74118831 87.7408712 8.61834605 88.3739881 8.61834605 89.2181439 8.61834605 89.9567803 8.87941883 90.5898972 9.40094886 91.2229261 9.92274269 91.5395725 10.8315292 91.5395725 12.1272205L91.5395725 16.5990482C91.5395725 16.8055146 91.4867248 16.9601886 91.3812933 17.0634218 91.2757738 17.1668309 91.1174946 17.2181837 90.9064556 17.2181837L90.6250703 17.2181837C90.4140314 17.2181837 90.2556642 17.1668309 90.1502327 17.0640373 90.0447132 16.9612438 89.9918655 16.8070974 89.9918655 16.6015103L89.9918655 12.353296C89.9918655 11.4624478 89.81301 10.8400587 89.4555628 10.4861288 89.0977638 10.1321989 88.6202002 9.95501407 88.0222565 9.95501407 87.3538785 9.95501407 86.7999892 10.2233853 86.3603247 10.7601277 85.9206602 11.2969581 85.7008279 12.0107094 85.7008279 12.9012059L85.7008279 16.6015103C85.7008279 16.8070974 85.6480682 16.9612438 85.5425487 17.0640373 85.4370292 17.1668309 85.27875 17.2181837 85.0676231 17.2181837L84.7863258 17.2181837C84.5752868 17.2181837 84.4170076 17.1655119 84.3114881 17.0599045 84.2059686 16.954385 84.1532089 16.7961058 84.1532089 16.5850668M95.0568006 14.7824424C95.0568006 15.1231824 95.1914259 15.4062384 95.4612919 15.6315225 95.7308063 15.8568945 96.1353856 15.9695365 96.674678 15.9695365 97.343056 15.9695365 97.9203355 15.7716875 98.4070441 15.3759894 98.893401 14.9802914 99.1367992 14.3867443 99.1367992 13.5950844L99.1367992 12.8202197C99.0547578 12.9191442 98.9346415 12.9988114 98.7763623 13.0592213 98.6180831 13.1197192 98.433336 13.1664115 98.222385 13.1993864L96.6044196 13.4631851C96.0416491 13.551118 95.6428734 13.7077265 95.4085322 13.9330985 95.1738393 14.1583826 95.0568006 14.4417024 95.0568006 14.7824424L95.0568006 14.7824424zM99.2072335 15.8868796C98.9610214 16.3308528 98.5271604 16.6667565 98.0465192 16.8942389 97.5656142 17.1219851 97.0147146 17.2357703 96.3933807 17.2357703 95.4788785 17.2357703 94.7693479 17.0269296 94.2654045 16.6092484 93.7611972 16.1915671 93.5090936 15.6431296 93.5090936 14.9635841 93.5090936 14.2952941 93.7289259 13.7522205 94.1685904 13.3345392 94.6082549 12.9168579 95.3263149 12.624569 96.3229464 12.4574965L98.011346 12.1900925C98.4685971 12.1123598 98.7702949 12.0345392 98.916967 11.9564548 99.0634632 11.8785463 99.1367992 11.7448883 99.1367992 11.5553049 99.1367992 11.0318404 98.9813339 10.6223368 98.6708428 10.327322 98.36 10.0322192 97.9057386 9.88457982 97.3078828 9.88457982 96.674678 9.88457982 96.2378274 9.99783739 95.9976826 10.2236491 95.7572741 10.4496366 95.560744 10.6891658 95.4085322 10.9425005 95.3497051 11.0530322 95.2705655 11.1576723 95.1711134 11.2568607 95.0713095 11.356049 94.9043249 11.4055552 94.6698958 11.4055552L94.4236837 11.4055552C94.1889908 11.4055552 94.0455722 11.3292294 93.9927246 11.1760503 93.9400528 11.0233109 93.937063 10.8617781 93.9840192 10.6917159 94.1714042 10.0799667 94.5612987 9.58156304 95.1535268 9.19624107 95.7454031 8.81100703 96.463727 8.61834605 97.3078828 8.61834605 98.433336 8.61834605 99.2775798 8.87941883 99.8402624 9.40094886 100.403121 9.92274269 100.684506 10.6479253 100.684506 11.5767605L100.684506 16.6334299C100.684506 16.828553 100.634472 16.9747854 100.53502 17.0720392 100.435217 17.1695568 100.285819 17.2181837 100.086563 17.2181837L99.8051772 17.2181837C99.6056575 17.2181837 99.4561715 17.1602359 99.3566315 17.0442524 99.2570035 16.9282689 99.2072335 16.7540739 99.2072335 16.5218431L99.2072335 15.8868796zM103.216789 16.5850668L103.216789 9.23387635C103.216789 9.03470833 103.266471 8.8852224 103.366275 8.78541856 103.465727 8.68596645 103.615213 8.63602056 103.814733 8.63602056L104.096118 8.63602056C104.295374 8.63602056 104.44486 8.69335281 104.544576 8.80828111 104.644028 8.92312148 104.694062 9.09538203 104.694062 9.32506277L104.694062 10.0956188 104.746734 10.0956188C104.95786 9.62684848 105.253755 9.26324594 105.634944 9.00525081 106.015781 8.74751948 106.476022 8.61834605 107.01549 8.61834605 107.120922 8.61834605 107.226529 8.62441342 107.332049 8.63602056 107.437568 8.64771564 107.531217 8.65958658 107.613434 8.67110579 107.777429 8.71779816 107.906339 8.7908704 108.000251 8.89041044 108.094075 8.98986255 108.117378 9.13301732 108.070685 9.32022646L107.929993 9.8815901C107.894819 10.0102359 107.844786 10.1008947 107.780419 10.1535666 107.715876 10.2064142 107.648519 10.2325303 107.578261 10.2325303 107.437568 10.2325303 107.302679 10.2096677 107.17377 10.1641185 107.044596 10.1184813 106.874798 10.0956188 106.663759 10.0956188 106.030642 10.0956188 105.555804 10.3668038 105.239246 10.9089981 104.922599 11.4511924 104.764408 12.0474654 104.764408 12.6981688L104.764408 16.6017741C104.764408 16.8073612 104.711648 16.9612438 104.606129 17.0640373 104.500609 17.1668309 104.34233 17.2181837 104.131203 17.2181837L103.849906 17.2181837C103.638867 17.2181837 103.480588 17.1655119 103.375068 17.0599045 103.269549 16.954385 103.216789 16.7961058 103.216789 16.5850668M110.110421 14.7824424C110.110421 15.1231824 110.245046 15.4062384 110.514912 15.6315225 110.784426 15.8568945 111.189006 15.9695365 111.728298 15.9695365 112.396676 15.9695365 112.973956 15.7716875 113.460664 15.3759894 113.947021 14.9802914 114.190419 14.3867443 114.190419 13.5950844L114.190419 12.8202197C114.108378 12.9191442 113.988262 12.9988114 113.829982 13.0592213 113.671703 13.1197192 113.486956 13.1664115 113.276005 13.1993864L111.65804 13.4631851C111.095269 13.551118 110.696494 13.7077265 110.462152 13.9330985 110.227459 14.1583826 110.110421 14.4417024 110.110421 14.7824424L110.110421 14.7824424zM114.260854 15.8868796C114.014642 16.3308528 113.580781 16.6667565 113.100139 16.8942389 112.619234 17.1219851 112.068335 17.2357703 111.447001 17.2357703 110.532499 17.2357703 109.822968 17.0269296 109.319025 16.6092484 108.814817 16.1915671 108.562714 15.6431296 108.562714 14.9635841 108.562714 14.2952941 108.782546 13.7522205 109.222211 13.3345392 109.661875 12.9168579 110.379935 12.624569 111.376567 12.4574965L113.064966 12.1900925C113.522217 12.1123598 113.823915 12.0345392 113.970587 11.9564548 114.117083 11.8785463 114.190419 11.7448883 114.190419 11.5553049 114.190419 11.0318404 114.034954 10.6223368 113.724463 10.327322 113.41362 10.0322192 112.959359 9.88457982 112.361503 9.88457982 111.728298 9.88457982 111.291448 9.99783739 111.051303 10.2236491 110.810894 10.4496366 110.614364 10.6891658 110.462152 10.9425005 110.403325 11.0530322 110.324186 11.1576723 110.224734 11.2568607 110.12493 11.356049 109.957945 11.4055552 109.723516 11.4055552L109.477304 11.4055552C109.242611 11.4055552 109.099192 11.3292294 109.046345 11.1760503 108.993673 11.0233109 108.990683 10.8617781 109.037639 10.6917159 109.225024 10.0799667 109.614919 9.58156304 110.207147 9.19624107 110.799023 8.81100703 111.517347 8.61834605 112.361503 8.61834605 113.486956 8.61834605 114.3312 8.87941883 114.893883 9.40094886 115.456741 9.92274269 115.738126 10.6479253 115.738126 11.5767605L115.738126 16.6334299C115.738126 16.828553 115.688093 16.9747854 115.58864 17.0720392 115.488837 17.1695568 115.339439 17.2181837 115.140183 17.2181837L114.858797 17.2181837C114.659278 17.2181837 114.509792 17.1602359 114.410252 17.0442524 114.310624 16.9282689 114.260854 16.7540739 114.260854 16.5218431L114.260854 15.8868796z"/>
    </g>
    <g transform="translate(25 15)">
      <circle cx="6" cy="6" r="6" fill="#6B6DFF"/>
      <path fill="#FFFFFF" d="M4.87738029,7.13113309 C5.09527732,7.45431398 5.48370246,7.75790814 5.98576564,7.75790814 C6.66787808,7.75790814 7.07525079,7.22906669 7.07525079,6.59249829 C7.07525079,5.78944276 6.53524511,5.37812163 5.84365888,5.33894819 C5.76791598,5.32915483 5.69207834,5.33894819 5.61633544,5.33894819 L5.61633544,4.56532171 C5.67317814,4.56532171 5.72054706,4.56532171 5.77738976,4.54568602 C6.35524321,4.47718147 6.66787808,3.98751347 6.66787808,3.4390853 C6.66787808,2.84169033 6.33634301,2.44016257 5.85318003,2.44016257 C5.23738408,2.44016257 4.87738029,2.97879738 4.87738029,4.23234747 L4.87738029,7.13113309 Z M4.87738029,8.15938694 L4.87738029,8.76657526 C4.87738029,9.34438351 4.89628049,10.0984722 5.00053948,10.5 L3.9111017,10.5 C3.78789514,10.2061992 3.75,9.5010283 3.75,8.82538439 L3.75,4.42821467 C3.75,3.03755754 4.09105622,2.43036921 4.47948136,2.05822153 C4.82053758,1.72529625 5.27523184,1.5 5.93839672,1.5 C7.02788187,1.5 7.7194681,2.25408873 7.7194681,3.25301146 C7.7194681,3.88957986 7.38788566,4.49671922 6.92367025,4.74155323 L6.92367025,4.79052003 C7.61525648,4.94721379 8.25,5.61316228 8.25,6.62187837 C8.25,7.89501518 7.33104296,8.66864166 6.26050537,8.66864166 C5.69207834,8.66864166 5.24685786,8.50215454 4.89628049,8.15938694 L4.87738029,8.15938694 Z"/>
    </g>
  </g>
</svg>
