<svg xmlns="http://www.w3.org/2000/svg" width="32" height="32" viewBox="0 0 32 32">
  <g fill="#FFFFFF" fill-rule="evenodd">
    <polygon points="0 0 32 0 32 32 0 32" opacity="0"/>
    <path d="M15.9968651,6.00630952 C13.2818651,6.00630952 12.9414286,6.01781746 11.8751587,6.06646825 C10.8111111,6.115 10.0844048,6.28400794 9.44853175,6.53115079 C8.79115079,6.7865873 8.23365079,7.1284127 7.67785714,7.68416667 C7.12210317,8.23996032 6.78027778,8.79746032 6.52484127,9.45484127 C6.27769841,10.0907143 6.10869048,10.8174206 6.06015873,11.8814683 C6.01150794,12.9477381 6,13.2881746 6,16.0031746 C6,18.7181349 6.01150794,19.0585714 6.06015873,20.1248413 C6.10869048,21.1888889 6.27769841,21.9155952 6.52484127,22.5514683 C6.78027778,23.2088492 7.12210317,23.7663492 7.67785714,24.3221429 C8.23365079,24.8778968 8.79115079,25.2197222 9.44853175,25.4751984 C10.0844048,25.7223016 10.8111111,25.8913095 11.8751587,25.9398413 C12.9414286,25.9884921 13.2818651,26 15.9968651,26 C18.7118254,26 19.0522619,25.9884921 20.1185317,25.9398413 C21.1825794,25.8913095 21.9092857,25.7223016 22.5451587,25.4751984 C23.2025397,25.2197222 23.7600397,24.8778968 24.3158333,24.3221429 C24.8715873,23.7663492 25.2134127,23.2088492 25.4688889,22.5514683 C25.7159921,21.9155952 25.885,21.1888889 25.9335317,20.1248413 C25.9821825,19.0585714 25.9936905,18.7181349 25.9936905,16.0031746 C25.9936905,13.2881746 25.9821825,12.9477381 25.9335317,11.8814683 C25.885,10.8174206 25.7159921,10.0907143 25.4688889,9.45484127 C25.2134127,8.79746032 24.8715873,8.23996032 24.3158333,7.68416667 C23.7600397,7.1284127 23.2025397,6.7865873 22.5451587,6.53115079 C21.9092857,6.28400794 21.1825794,6.115 20.1185317,6.06646825 C19.0522619,6.01781746 18.7118254,6.00630952 15.9968651,6.00630952 L15.9968651,6.00630952 Z M15.9968651,7.80753968 C18.6661111,7.80753968 18.9823016,7.8177381 20.0364286,7.86583333 C21.0111111,7.91027778 21.5404365,8.07313492 21.8926984,8.21003968 C22.3593254,8.39138889 22.6923413,8.60801587 23.0421429,8.95785714 C23.3919841,9.30765873 23.6086111,9.6406746 23.7899603,10.1073016 C23.9268651,10.4595635 24.0897222,10.9888889 24.1341667,11.9635714 C24.1822619,13.0176984 24.1924603,13.3338889 24.1924603,16.0031746 C24.1924603,18.6724206 24.1822619,18.9886111 24.1341667,20.0427381 C24.0897222,21.0174206 23.9268651,21.546746 23.7899603,21.8990079 C23.6086111,22.3656349 23.3919841,22.6986508 23.0421429,23.0484524 C22.6923413,23.3982937 22.3593254,23.6149206 21.8926984,23.7962698 C21.5404365,23.9331746 21.0111111,24.0960317 20.0364286,24.1404762 C18.9824603,24.1885714 18.6663095,24.1987698 15.9968651,24.1987698 C13.327381,24.1987698 13.0112698,24.1885714 11.9572619,24.1404762 C10.9825794,24.0960317 10.453254,23.9331746 10.1009921,23.7962698 C9.63436508,23.6149206 9.30134921,23.3982937 8.95154762,23.0484524 C8.60174603,22.6986508 8.38507937,22.3656349 8.20373016,21.8990079 C8.0668254,21.546746 7.90396825,21.0174206 7.85952381,20.0427381 C7.81142857,18.9886111 7.80123016,18.6724206 7.80123016,16.0031746 C7.80123016,13.3338889 7.81142857,13.0176984 7.85952381,11.9635714 C7.90396825,10.9888889 8.0668254,10.4595635 8.20373016,10.1073016 C8.38507937,9.6406746 8.60170635,9.30765873 8.95154762,8.95785714 C9.30134921,8.60801587 9.63436508,8.39138889 10.1009921,8.21003968 C10.453254,8.07313492 10.9825794,7.91027778 11.9572619,7.86583333 C13.0113889,7.8177381 13.3275794,7.80753968 15.9968651,7.80753968 L15.9968651,7.80753968 Z"/>
    <path d="M15.9968651 19.3354365C14.1564683 19.3354365 12.6645635 17.8435317 12.6645635 16.0031746 12.6645635 14.1627778 14.1564683 12.670873 15.9968651 12.670873 17.8372222 12.670873 19.329127 14.1627778 19.329127 16.0031746 19.329127 17.8435317 17.8372222 19.3354365 15.9968651 19.3354365L15.9968651 19.3354365zM15.9968651 10.8696429C13.1616667 10.8696429 10.8633333 13.1679762 10.8633333 16.0031746 10.8633333 18.8383333 13.1616667 21.1366667 15.9968651 21.1366667 18.8320238 21.1366667 21.1303571 18.8383333 21.1303571 16.0031746 21.1303571 13.1679762 18.8320238 10.8696429 15.9968651 10.8696429L15.9968651 10.8696429zM22.5328175 10.6668254C22.5328175 11.3293651 21.9957143 11.8664286 21.3331746 11.8664286 20.6706746 11.8664286 20.1335714 11.3293651 20.1335714 10.6668254 20.1335714 10.0042857 20.6706746 9.46718254 21.3331746 9.46718254 21.9957143 9.46718254 22.5328175 10.0042857 22.5328175 10.6668254"/>
  </g>
</svg>
