<?xml version="1.0" encoding="UTF-8" standalone="no"?>
<svg width="96px" height="114px" viewBox="0 0 96 114" version="1.1" xmlns="http://www.w3.org/2000/svg" xmlns:xlink="http://www.w3.org/1999/xlink" xmlns:sketch="http://www.bohemiancoding.com/sketch/ns">
    <!-- Generator: Sketch 3.4.4 (17249) - http://www.bohemiancoding.com/sketch -->
    <title>Stamp</title>
    <desc>Created with Sketch.</desc>
    <defs>
        <filter x="-50%" y="-50%" width="200%" height="200%" filterUnits="objectBoundingBox" id="filter-1">
            <feOffset dx="0" dy="1" in="SourceAlpha" result="shadowOffsetOuter1"></feOffset>
            <feGaussianBlur stdDeviation="1" in="shadowOffsetOuter1" result="shadowBlurOuter1"></feGaussianBlur>
            <feColorMatrix values="0 0 0 0 0   0 0 0 0 0   0 0 0 0 0  0 0 0 0.127505095 0" in="shadowBlurOuter1" type="matrix" result="shadowMatrixOuter1"></feColorMatrix>
            <feOffset dx="0" dy="4" in="SourceAlpha" result="shadowOffsetOuter2"></feOffset>
            <feGaussianBlur stdDeviation="4" in="shadowOffsetOuter2" result="shadowBlurOuter2"></feGaussianBlur>
            <feColorMatrix values="0 0 0 0 0   0 0 0 0 0   0 0 0 0 0  0 0 0 0.0535580842 0" in="shadowBlurOuter2" type="matrix" result="shadowMatrixOuter2"></feColorMatrix>
            <feMerge>
                <feMergeNode in="shadowMatrixOuter1"></feMergeNode>
                <feMergeNode in="shadowMatrixOuter2"></feMergeNode>
                <feMergeNode in="SourceGraphic"></feMergeNode>
            </feMerge>
        </filter>
    </defs>
    <g id="Recovery-Password" stroke="none" stroke-width="1" fill="none" fill-rule="evenodd" sketch:type="MSPage">
        <g id="Recovery-Mail-1.1" sketch:type="MSArtboardGroup" transform="translate(-487.000000, -21.000000)">
            <g id="Stamp" sketch:type="MSLayerGroup" transform="translate(495.000000, 25.000000)">
                <path d="M2.84851021,98.3921569 L0.0446729473,98.3921569 L0.0446729473,96.2998301 C1.16588233,95.8272517 1.94943485,94.7479773 1.94943485,93.4921569 C1.94943485,92.2363365 1.16588233,91.1570621 0.0446729473,90.6844836 L0.0446729473,88.9498301 C1.16588233,88.4772517 1.94943485,87.3979773 1.94943485,86.1421569 C1.94943485,84.8863365 1.16588233,83.8070621 0.0446729473,83.3344836 L0.0446729473,81.5998301 C1.16588233,81.1272517 1.94943485,80.0479773 1.94943485,78.7921569 C1.94943485,77.5363365 1.16588233,76.4570621 0.0446729473,75.9844836 L0.0446729473,74.2498301 C1.16588233,73.7772517 1.94943485,72.6979773 1.94943485,71.4421569 C1.94943485,70.1863365 1.16588233,69.1070621 0.0446729473,68.6344836 L0.0446729473,66.8998301 C1.16588233,66.4272517 1.94943485,65.3479773 1.94943485,64.0921569 C1.94943485,62.8363365 1.16588233,61.7570621 0.0446729473,61.2844836 L0.0446729473,59.5498301 C1.16588233,59.0772517 1.94943485,57.9979773 1.94943485,56.7421569 C1.94943485,55.4863365 1.16588233,54.4070621 0.0446729473,53.9344836 L0.0446729473,52.1998301 C1.16588233,51.7272517 1.94943485,50.6479773 1.94943485,49.3921569 C1.94943485,48.1363365 1.16588233,47.0570621 0.0446729473,46.5844836 L0.0446729473,44.8498301 C1.16588233,44.3772517 1.94943485,43.2979773 1.94943485,42.0421569 C1.94943485,40.7863365 1.16588233,39.7070621 0.0446729473,39.2344836 L0.0446729473,37.4998301 C1.16588233,37.0272517 1.94943485,35.9479773 1.94943485,34.6921569 C1.94943485,33.4363365 1.16588233,32.3570621 0.0446729473,31.8844836 L0.0446729473,30.1498301 C1.16588233,29.6772517 1.94943485,28.5979773 1.94943485,27.3421569 C1.94943485,26.0863365 1.16588233,25.0070621 0.0446729473,24.5344836 L0.0446729473,22.7998301 C1.16588233,22.3272517 1.94943485,21.2479773 1.94943485,19.9921569 C1.94943485,18.7363365 1.16588233,17.6570621 0.0446729473,17.1844836 L0.0446729473,15.4498301 C1.16588233,14.9772517 1.94943485,13.8979773 1.94943485,12.6421569 C1.94943485,11.3863365 1.16588233,10.3070621 0.0446729473,9.83448362 L0.0446729473,8.09983011 C1.16588233,7.62725167 1.94943485,6.54797727 1.94943485,5.29215686 C1.94943485,4.03633645 1.16588233,2.95706205 0.0446729473,2.48448362 L0.0446729473,0.392156863 L2.84851021,0.392156863 C3.33838743,1.47377354 4.4571688,2.22965686 5.75895866,2.22965686 C7.06074853,2.22965686 8.17952989,1.47377354 8.66940712,0.392156863 L10.4675578,0.392156863 C10.957435,1.47377354 12.0762164,2.22965686 13.3780063,2.22965686 C14.6797961,2.22965686 15.7985775,1.47377354 16.2884547,0.392156863 L18.0866054,0.392156863 C18.5764827,1.47377354 19.695264,2.22965686 20.9970539,2.22965686 C22.2988438,2.22965686 23.4176251,1.47377354 23.9075024,0.392156863 L25.7056531,0.392156863 C26.1955303,1.47377354 27.3143117,2.22965686 28.6161015,2.22965686 C29.9178914,2.22965686 31.0366728,1.47377354 31.52655,0.392156863 L33.3247007,0.392156863 C33.8145779,1.47377354 34.9333593,2.22965686 36.2351491,2.22965686 C37.536939,2.22965686 38.6557204,1.47377354 39.1455976,0.392156863 L40.9437483,0.392156863 C41.4336255,1.47377354 42.5524069,2.22965686 43.8541968,2.22965686 C45.1559866,2.22965686 46.274768,1.47377354 46.7646452,0.392156863 L48.5627959,0.392156863 C49.0526731,1.47377354 50.1714545,2.22965686 51.4732444,2.22965686 C52.7750342,2.22965686 53.8938156,1.47377354 54.3836928,0.392156863 L56.1818435,0.392156863 C56.6717208,1.47377354 57.7905021,2.22965686 59.092292,2.22965686 C60.3940819,2.22965686 61.5128632,1.47377354 62.0027404,0.392156863 L63.8008912,0.392156863 C64.2907684,1.47377354 65.4095497,2.22965686 66.7113396,2.22965686 C68.0131295,2.22965686 69.1319108,1.47377354 69.6217881,0.392156863 L71.4199388,0.392156863 C71.909816,1.47377354 73.0285974,2.22965686 74.3303872,2.22965686 C75.6321771,2.22965686 76.7509585,1.47377354 77.2408357,0.392156863 L80.0446729,0.392156863 L80.0446729,3.09698362 C78.9234636,3.56956205 78.139911,4.64883645 78.139911,5.90465686 C78.139911,7.16047727 78.9234636,8.23975167 80.0446729,8.71233011 L80.0446729,10.4469836 C78.9234636,10.9195621 78.139911,11.9988365 78.139911,13.2546569 C78.139911,14.5104773 78.9234636,15.5897517 80.0446729,16.0623301 L80.0446729,17.7969836 C78.9234636,18.2695621 78.139911,19.3488365 78.139911,20.6046569 C78.139911,21.8604773 78.9234636,22.9397517 80.0446729,23.4123301 L80.0446729,25.1469836 C78.9234636,25.6195621 78.139911,26.6988365 78.139911,27.9546569 C78.139911,29.2104773 78.9234636,30.2897517 80.0446729,30.7623301 L80.0446729,32.4969836 C78.9234636,32.9695621 78.139911,34.0488365 78.139911,35.3046569 C78.139911,36.5604773 78.9234636,37.6397517 80.0446729,38.1123301 L80.0446729,39.8469836 C78.9234636,40.3195621 78.139911,41.3988365 78.139911,42.6546569 C78.139911,43.9104773 78.9234636,44.9897517 80.0446729,45.4623301 L80.0446729,47.1969836 C78.9234636,47.6695621 78.139911,48.7488365 78.139911,50.0046569 C78.139911,51.2604773 78.9234636,52.3397517 80.0446729,52.8123301 L80.0446729,54.5469836 C78.9234636,55.0195621 78.139911,56.0988365 78.139911,57.3546569 C78.139911,58.6104773 78.9234636,59.6897517 80.0446729,60.1623301 L80.0446729,61.8969836 C78.9234636,62.3695621 78.139911,63.4488365 78.139911,64.7046569 C78.139911,65.9604773 78.9234636,67.0397517 80.0446729,67.5123301 L80.0446729,69.2469836 C78.9234636,69.7195621 78.139911,70.7988365 78.139911,72.0546569 C78.139911,73.3104773 78.9234636,74.3897517 80.0446729,74.8623301 L80.0446729,76.5969836 C78.9234636,77.0695621 78.139911,78.1488365 78.139911,79.4046569 C78.139911,80.6604773 78.9234636,81.7397517 80.0446729,82.2123301 L80.0446729,83.9469836 C78.9234636,84.4195621 78.139911,85.4988365 78.139911,86.7546569 C78.139911,88.0104773 78.9234636,89.0897517 80.0446729,89.5623301 L80.0446729,91.2969836 C78.9234636,91.7695621 78.139911,92.8488365 78.139911,94.1046569 C78.139911,95.3604773 78.9234636,96.4397517 80.0446729,96.9123301 L80.0446729,98.3921569 L77.2408357,98.3921569 C76.7509585,97.3105402 75.6321771,96.5546569 74.3303872,96.5546569 C73.0285974,96.5546569 71.909816,97.3105402 71.4199388,98.3921569 L69.6217881,98.3921569 C69.1319108,97.3105402 68.0131295,96.5546569 66.7113396,96.5546569 C65.4095497,96.5546569 64.2907684,97.3105402 63.8008912,98.3921569 L62.0027404,98.3921569 C61.5128632,97.3105402 60.3940819,96.5546569 59.092292,96.5546569 C57.7905021,96.5546569 56.6717208,97.3105402 56.1818435,98.3921569 L54.3836928,98.3921569 C53.8938156,97.3105402 52.7750342,96.5546569 51.4732444,96.5546569 C50.1714545,96.5546569 49.0526731,97.3105402 48.5627959,98.3921569 L46.7646452,98.3921569 C46.274768,97.3105402 45.1559866,96.5546569 43.8541968,96.5546569 C42.5524069,96.5546569 41.4336255,97.3105402 40.9437483,98.3921569 L39.1455976,98.3921569 C38.6557204,97.3105402 37.536939,96.5546569 36.2351491,96.5546569 C34.9333593,96.5546569 33.8145779,97.3105402 33.3247007,98.3921569 L31.52655,98.3921569 C31.0366728,97.3105402 29.9178914,96.5546569 28.6161015,96.5546569 C27.3143117,96.5546569 26.1955303,97.3105402 25.7056531,98.3921569 L23.9075024,98.3921569 C23.4176251,97.3105402 22.2988438,96.5546569 20.9970539,96.5546569 C19.695264,96.5546569 18.5764827,97.3105402 18.0866054,98.3921569 L16.2884547,98.3921569 C15.7985775,97.3105402 14.6797961,96.5546569 13.3780063,96.5546569 C12.0762164,96.5546569 10.957435,97.3105402 10.4675578,98.3921569 L8.66940712,98.3921569 C8.17952989,97.3105402 7.06074853,96.5546569 5.75895866,96.5546569 C4.4571688,96.5546569 3.33838743,97.3105402 2.84851021,98.3921569 Z" id="Contour" stroke-opacity="0.5" stroke="#EAEAEA" fill="#FDFDFD" filter="url(#filter-1)" sketch:type="MSShapeGroup"></path>
                <rect id="Rectangle_inside" fill="#ECEFF1" sketch:type="MSShapeGroup" x="10.1960784" y="12.5490196" width="60" height="74"></rect>
                <path d="M38.4978088,60.9058739 L38.4978088,53.2766602 C38.4526091,53.2172797 38.4101109,53.156136 38.3703144,53.0927687 C38.3216696,53.0293217 38.2758531,52.963883 38.2328647,52.8961682 C38.1893107,52.838696 38.146888,52.7803703 38.1075762,52.7197684 C38.0572346,52.6540452 38.0094383,52.5863304 37.964753,52.5166241 C37.9172396,52.4540306 37.8722715,52.3894455 37.8292831,52.3234378 C37.7820524,52.2605598 37.7368015,52.1959747 37.694096,52.129967 C37.6465825,52.067089 37.6016144,52.0025039 37.558626,51.9367807 C37.5113954,51.8739027 37.4664273,51.8093176 37.4234389,51.7433099 C37.3762083,51.6804319 37.3312402,51.6158468 37.287969,51.5498391 C37.2410212,51.4869611 37.1960531,51.422376 37.1527819,51.3566529 C37.1055512,51.2937748 37.060866,51.2289052 37.017312,51.1631821 C36.9703641,51.1000195 36.925396,51.0351499 36.8815592,50.9694268 C36.8340458,50.9051262 36.7882292,50.839403 36.7441096,50.7725418 C36.6965961,50.7082412 36.6507795,50.642518 36.6066599,50.5759413 C36.5591464,50.5116407 36.5136127,50.4459176 36.4692102,50.3793408 C36.4216968,50.3147557 36.3758802,50.2493171 36.3317606,50.1824559 C36.2845299,50.1181553 36.2384306,50.0524321 36.1943109,49.9858554 C36.1470803,49.9212703 36.1009809,49.8558316 36.0565784,49.7889704 C36.0096306,49.7243853 35.9635312,49.6592312 35.9194116,49.5923699 C35.872181,49.5277848 35.8260816,49.4623462 35.7816791,49.3957695 C35.7347313,49.3308999 35.6886319,49.2657457 35.6442295,49.199169 C35.5975645,49.1342994 35.5511823,49.0691453 35.5067798,49.002284 C35.4601148,48.9374144 35.4137326,48.8722603 35.3693302,48.8056836 C35.3226651,48.7408139 35.276283,48.6756598 35.2318805,48.6090831 C35.1852155,48.5442135 35.1388333,48.4787748 35.0944308,48.4121981 C35.0477658,48.3473285 35.0013836,48.2821744 34.9569812,48.2155976 C34.9103162,48.150728 34.863934,48.0855739 34.8195315,48.0187127 C34.7728665,47.953843 34.7264843,47.8886889 34.6820819,47.8221122 C34.6354169,47.7572426 34.5890347,47.6920884 34.5446322,47.6255117 C34.4979672,47.5603576 34.451585,47.495488 34.4071825,47.4289113 C34.3605175,47.3637571 34.3141353,47.298603 34.2694501,47.2320263 C34.2230679,47.1668721 34.1764029,47.1020025 34.1320004,47.0354258 C34.0856182,46.9702717 34.0389532,46.9054021 33.9948336,46.8388253 C33.9484514,46.7736712 33.9015036,46.7085171 33.8571011,46.6419404 C33.8107189,46.5767862 33.7640539,46.5119166 33.7196514,46.4453399 C33.6732692,46.3799012 33.6266042,46.3153161 33.5822018,46.2484549 C33.5361024,46.1833008 33.4891546,46.1184312 33.4447521,46.0518544 C33.3986527,45.9867003 33.3517049,45.9218307 33.3073025,45.855254 C33.2612031,45.7898153 33.2142553,45.7249457 33.16957,45.658369 C33.1234706,45.5932149 33.0768056,45.5283452 33.0324031,45.4617685 C32.986021,45.3963299 32.9393559,45.3317448 32.8946707,45.2651681 C32.8485713,45.1997294 32.8019063,45.1351443 32.7575038,45.0682831 C32.7111216,45.0031289 32.6641738,44.9382593 32.6197713,44.8716826 C32.573672,44.806244 32.5267242,44.7416589 32.4823217,44.6750822 C31.3567051,43.0749649 30.6929308,41.122617 30.6929308,39.0132163 C30.6929308,33.5929045 35.0610583,29.1985569 40.4490283,29.1985569 C45.8372812,29.1985569 50.2051259,33.5929045 50.2051259,39.0132163 C50.2051259,41.122617 49.5416343,43.0749649 48.4160178,44.6750822 C48.3716153,44.7416589 48.3246675,44.806244 48.2785681,44.8716826 C48.2338828,44.9382593 48.186935,45.0031289 48.1408357,45.0682831 C48.0964332,45.1351443 48.0494854,45.1997294 48.003386,45.2651681 C47.9589835,45.3317448 47.9120357,45.3963299 47.8659363,45.4617685 C47.8215339,45.5283452 47.7748689,45.5932149 47.7284867,45.658369 C47.6840842,45.7249457 47.6371364,45.7898153 47.591037,45.855254 C47.5466346,45.9218307 47.4996867,45.9867003 47.4535874,46.0518544 C47.4091849,46.1184312 47.3622371,46.1833008 47.3161377,46.2484549 C47.2717352,46.3153161 47.2247874,46.3799012 47.178688,46.4453399 C47.1342856,46.5119166 47.0876206,46.5767862 47.0412384,46.6419404 C46.9968359,46.7085171 46.9498881,46.7736712 46.9035059,46.8388253 C46.8591034,46.9054021 46.8124384,46.9702717 46.7663391,47.0354258 C46.7219366,47.1020025 46.6752716,47.1668721 46.6286066,47.2320263 C46.5842041,47.298603 46.5378219,47.3637571 46.4911569,47.4289113 C46.4467545,47.495488 46.4003723,47.5603576 46.3537073,47.6255117 C46.3093048,47.6920884 46.2629226,47.7572426 46.2162576,47.8221122 C46.1718552,47.8886889 46.125473,47.953843 46.078808,48.0187127 C46.0344055,48.0855739 45.9880233,48.150728 45.9413583,48.2155976 C45.8969558,48.2821744 45.8505736,48.3473285 45.8039086,48.4121981 C45.7595062,48.4787748 45.713124,48.5442135 45.666459,48.6090831 C45.6220565,48.6756598 45.5756743,48.7408139 45.5290093,48.8056836 C45.4846069,48.8722603 45.4382247,48.9374144 45.3915597,49.002284 C45.3471572,49.0691453 45.300775,49.1342994 45.2538272,49.199169 C45.2097075,49.2657457 45.1636082,49.3308999 45.1166603,49.3957695 C45.0722579,49.4623462 45.0261585,49.5277848 44.9789279,49.5923699 C44.9348082,49.6592312 44.8887089,49.7243853 44.841761,49.7889704 C44.7973586,49.8558316 44.7512592,49.9212703 44.7040286,49.9858554 C44.6599089,50.0524321 44.6138095,50.1181553 44.5665789,50.1824559 C44.5224593,50.2493171 44.4763599,50.3147557 44.4291292,50.3793408 C44.3847268,50.4459176 44.339193,50.5116407 44.2916796,50.5759413 C44.2472771,50.642518 44.2017434,50.7082412 44.1542299,50.7725418 C44.1098275,50.839403 44.0642937,50.9051262 44.0164974,50.9694268 C43.9729434,51.0351499 43.9279753,51.1000195 43.8810275,51.1631821 C43.8374735,51.2289052 43.7925054,51.2937748 43.7455576,51.3566529 C43.7022864,51.422376 43.6573183,51.4869611 43.6103705,51.5498391 C43.5670993,51.6158468 43.5221312,51.6804319 43.4749005,51.7433099 C43.4316294,51.8093176 43.3869441,51.8739027 43.3397134,51.9367807 C43.2967251,52.0025039 43.251757,52.067089 43.2042435,52.129967 C43.1612551,52.1959747 43.116287,52.2605598 43.0690564,52.3234378 C43.026068,52.3894455 42.9810999,52.4540306 42.9335865,52.5166241 C42.8886184,52.5863304 42.8411049,52.6540452 42.7907632,52.7197684 C42.7514515,52.7803703 42.7090288,52.838696 42.6654748,52.8961682 C42.6224864,52.963883 42.5766699,53.0293217 42.5280251,53.0927687 C42.4881456,53.1562682 42.4455532,53.2175347 42.4002478,53.2770316 L42.4002478,69.1985569 L38.4978088,69.1985569 L38.4978088,66.7595325 L34.1075649,66.7595325 L34.1075649,60.9058739 L38.4978088,60.9058739 Z M41.077309,46.6118059 C41.102197,46.5816472 41.1243983,46.5490701 41.1447612,46.5154972 C41.1700734,46.484485 41.1925574,46.4513389 41.213486,46.417197 C41.2385154,46.3860425 41.2611409,46.3528964 41.2822108,46.3187545 C41.3070988,46.2874578 41.3298657,46.2544539 41.3510771,46.2204543 C41.3756823,46.1890153 41.3984491,46.1561537 41.4198019,46.122154 C41.4442657,46.0904305 41.4671739,46.0577112 41.4885267,46.0237116 C41.5128491,45.991988 41.5357574,45.9592687 41.5572516,45.9254113 C41.5790286,45.8966752 41.6002399,45.8675123 41.6198958,45.8372114 C41.6450666,45.8043498 41.6688233,45.7704924 41.6913074,45.7356392 C41.7150641,45.7043425 41.7375482,45.6720499 41.7590424,45.6390461 C41.7826577,45.6076071 41.8051417,45.5753145 41.8266359,45.5423107 C41.8503926,45.5108717 41.8728767,45.4785791 41.8943709,45.4457176 C41.9179862,45.4142786 41.9403288,45.381986 41.9619644,45.3489822 C41.9855798,45.3175432 42.0080638,45.2852506 42.0296994,45.2522468 C42.0531733,45.2208078 42.0756574,45.1885152 42.097293,45.1556536 C42.1207669,45.1242146 42.1432509,45.0917798 42.1650279,45.0589182 C42.1885018,45.027337 42.2109859,44.9949022 42.2327629,44.9620406 C42.256661,44.9298903 42.2794279,44.8970287 42.3016291,44.8635981 C42.3253859,44.8314478 42.3481527,44.7985862 42.370354,44.7652979 C42.3941107,44.7331476 42.4168776,44.700286 42.4390788,44.6669976 C42.4626941,44.6347051 42.4857438,44.6019858 42.5078036,44.5685551 C42.5314189,44.5364048 42.5544686,44.5035433 42.5765284,44.4702549 C42.6001438,44.4379624 42.6231935,44.405243 42.6453947,44.3718124 C42.6688686,44.3395199 42.6919183,44.3069428 42.7139781,44.2735122 C42.7375934,44.2412196 42.7606431,44.2085003 42.7828443,44.1752119 C42.8063183,44.1427771 42.8293679,44.1102001 42.8514278,44.0769117 C42.8749017,44.0444769 42.8980928,44.0118998 42.920294,43.9784692 C42.9436265,43.9460344 42.9668176,43.9134573 42.9890188,43.880169 C43.0123513,43.8477342 43.0355424,43.8151571 43.0577437,43.7818688 C43.0810762,43.7494339 43.1042673,43.7167146 43.1264685,43.6834263 C43.149801,43.6509915 43.1729921,43.6184144 43.1951933,43.585126 C43.2185258,43.5526912 43.2417169,43.5201142 43.2639181,43.4866835 C43.2872506,43.4542487 43.3104417,43.4216717 43.332643,43.3883833 C43.3559755,43.3559485 43.3791666,43.3233714 43.4013678,43.2900831 C43.4247003,43.257506 43.4478914,43.2250712 43.4700926,43.1917828 C43.4934251,43.1592058 43.5166162,43.1266287 43.5388175,43.0933403 C43.56215,43.0607633 43.5854825,43.0283285 43.6076837,42.9950401 C43.6307334,42.962463 43.6540659,42.9300282 43.6762671,42.8967399 C43.6994582,42.8641628 43.7229321,42.8315857 43.7451334,42.7982974 C43.7683245,42.7657203 43.791657,42.7332855 43.8138582,42.6999972 C43.8369079,42.6672778 43.8603818,42.6349853 43.882583,42.6015547 C43.9056327,42.5689776 43.9291066,42.5365428 43.9513078,42.5032544 C43.9743575,42.4706774 43.9978314,42.4382426 44.0200327,42.4049542 C44.0430824,42.3722349 44.0665563,42.3398001 44.0887575,42.3065117 C44.1119486,42.2739346 44.1352811,42.2414998 44.1574823,42.2082115 C44.180532,42.1754921 44.2040059,42.1431996 44.2262072,42.1099112 C44.2492568,42.0771919 44.2727308,42.0448994 44.294932,42.0114688 C44.3179817,41.9788917 44.3414556,41.9464569 44.3637982,41.9131685 C44.3868479,41.8804492 44.4103218,41.8481566 44.4325231,41.8148683 C44.9953313,41.0148097 45.3270771,40.0386357 45.3270771,38.9839354 C45.3270771,36.2737794 43.1431548,34.0766056 40.4490283,34.0766056 C37.7550433,34.0766056 35.5709795,36.2737794 35.5709795,38.9839354 C35.5709795,40.0386357 35.9028667,41.0148097 36.465675,41.8148683 C36.4878762,41.8481566 36.5113502,41.8804492 36.5343998,41.9131685 C36.5566011,41.9464569 36.580075,41.9788917 36.6032661,42.0114688 C36.6254673,42.0448994 36.6487998,42.0771919 36.6718495,42.1099112 C36.6941921,42.1431996 36.7175246,42.1754921 36.7407157,42.2082115 C36.762917,42.2414998 36.7862495,42.2739346 36.8092992,42.3065117 C36.8316418,42.3398001 36.8551157,42.3722349 36.8781654,42.4049542 C36.9003666,42.4382426 36.9238405,42.4706774 36.9468902,42.5032544 C36.9690915,42.5365428 36.9925654,42.5689776 37.0156151,42.6015547 C37.0378163,42.6349853 37.0611488,42.6672778 37.0843399,42.6999972 C37.1065411,42.7332855 37.1298736,42.7657203 37.1530647,42.7982974 C37.1752659,42.8315857 37.1987399,42.8641628 37.2219309,42.8967399 C37.2439908,42.9300282 37.2673233,42.962463 37.2905144,42.9950401 C37.3127156,43.0283285 37.3360481,43.0607633 37.3592392,43.0933403 C37.3815818,43.1266287 37.4047729,43.1592058 37.4281054,43.1917828 C37.4503067,43.2250712 37.4734978,43.257506 37.4968303,43.2900831 C37.5190315,43.3233714 37.5422226,43.3559485 37.5655551,43.3883833 C37.5877563,43.4216717 37.6109474,43.4542487 37.6342799,43.4866835 C37.6564812,43.5201142 37.6796723,43.5526912 37.7030048,43.585126 C37.725206,43.6184144 37.7483971,43.6509915 37.7717296,43.6834263 C37.7939308,43.7167146 37.8171219,43.7494339 37.8404544,43.7818688 C37.8626556,43.8151571 37.8858467,43.8477342 37.9091792,43.880169 C37.9313805,43.9134573 37.9545716,43.9460344 37.9779041,43.9784692 C38.0001053,44.0118998 38.0232964,44.0444769 38.0466289,44.0769117 C38.0688301,44.1102001 38.0918798,44.1427771 38.1153537,44.1752119 C38.137555,44.2085003 38.1606046,44.2412196 38.18422,44.2735122 C38.2062798,44.3069428 38.2293295,44.3395199 38.2528034,44.3718124 C38.2750046,44.405243 38.2980543,44.4379624 38.3216696,44.4702549 C38.3437294,44.5035433 38.3667791,44.5364048 38.3903945,44.5685551 C38.4124543,44.6019858 38.4353626,44.6347051 38.4591193,44.6669976 C38.4813205,44.700286 38.5040874,44.7331476 38.5278441,44.7652979 C38.5499039,44.7985862 38.5728122,44.8314478 38.5965689,44.8635981 C38.6186288,44.8970287 38.641537,44.9298903 38.6652938,44.9620406 C38.6872122,44.9949022 38.7096962,45.027337 38.7331701,45.0589182 C38.7549471,45.0917798 38.7772898,45.1242146 38.8009051,45.1556536 C38.8225407,45.1885152 38.8450248,45.2208078 38.8684987,45.2522468 C38.8901343,45.2852506 38.9126183,45.3175432 38.9362336,45.3489822 C38.9577278,45.381986 38.9802119,45.4142786 39.0038272,45.4457176 C39.0253214,45.4785791 39.0478054,45.5108717 39.0715622,45.5423107 C39.0929149,45.5753145 39.1155404,45.6076071 39.1391557,45.6390461 C39.1606499,45.6720499 39.1831339,45.7043425 39.2068907,45.7356392 C39.2292333,45.7704924 39.2531315,45.8043498 39.2783023,45.8372114 C39.2979581,45.8675123 39.3191695,45.8966752 39.3409465,45.9254113 C39.3624407,45.9592687 39.385349,45.991988 39.4096713,46.0237116 C39.4310241,46.0577112 39.4539324,46.0904305 39.4783962,46.122154 C39.499749,46.1561537 39.5225158,46.1890153 39.547121,46.2204543 C39.5683324,46.2544539 39.5910992,46.2874578 39.6158458,46.3187545 C39.6370572,46.3528964 39.6596827,46.3860425 39.6847121,46.417197 C39.7056406,46.4513389 39.7281247,46.484485 39.7534369,46.5154972 C39.7737998,46.5490701 39.796001,46.5816472 39.820889,46.6118059 C39.8408277,46.6450942 39.8627461,46.6771023 39.8874927,46.7066919 C40.0003372,46.9010162 40.2093399,47.0320358 40.4490283,47.0320358 C40.6888582,47.0320358 40.8978609,46.9010162 41.0107053,46.7066919 C41.0354519,46.6771023 41.0573703,46.6450942 41.077309,46.6118059 Z" id="Fill-4-Copy-4" opacity="0.9" fill="#B0BEC5" sketch:type="MSShapeGroup" transform="translate(40.449028, 49.198557) rotate(-330.000000) translate(-40.449028, -49.198557) "></path>
            </g>
        </g>
    </g>
</svg>