<svg xmlns="http://www.w3.org/2000/svg" width="20" height="20" viewBox="0 0 20 20">
  <path fill="#444444" fill-rule="evenodd" d="M14.999698,17.9997815 L11.000302,17.9997815 L11.000302,8.00008348 L8.99969802,8.00008348 L8.99969802,17.9997815 L5.00030198,17.9997815 L5.00030198,8.00008348 L2.99969802,8.00008348 L2.99969802,17.9997815 L1.99339768,17.9997815 C1.44494629,17.9997815 1,18.4474967 1,18.9997815 C1,19.5559167 1.44475929,19.9997815 1.99339768,19.9997815 L18.0066023,19.9997815 C18.5550537,19.9997815 19,19.5520662 19,18.9997815 C19,18.4436463 18.5552407,17.9997815 18.0066023,17.9997815 L17.000302,17.9997815 L17.000302,8.00008348 L14.999698,8.00008348 L14.999698,17.9997815 Z M1,5.99978149 L9.18543659,0.237706439 C9.63530754,-0.0789767507 10.3639575,-0.0794941031 10.8145634,0.237706439 L19,5.99978149 L19,6.99771962 C19,7.54886563 18.5550537,7.99565774 18.0066023,7.99565774 L1.99339768,7.99565774 C1.44475929,7.99565774 1,7.55270811 1,6.99771962 L1,5.99978149 Z"/>
</svg>
