<svg xmlns="http://www.w3.org/2000/svg" width="20" height="20" viewBox="0 0 20 20">
  <path fill="#444444" fill-rule="evenodd" d="M16,18.0042615 L4,18.0042615 L4,4.03199649 L6.004,4.03199649 C6.026,5.11584505 6.909,5.98811359 8,5.98811359 L12,5.98811359 C13.091,5.98811359 13.974,5.11584505 13.996,4.03199649 L16,4.03199649 L16,18.0042615 Z M8,2 L12,2 L12,4 L8,4 L8,2 Z M16,2.03595862 L14,2.03595862 L14,1.99603786 C14,0.894224963 13.105,0 12,0 L8,0 C6.895,0 6,0.894224963 6,1.99603786 L6,2.03595862 L4,2.03595862 C2.895,2.03595862 2,2.92918557 2,4.03199649 L2,18.0042615 C2,19.1070725 2.895,20.0002994 4,20.0002994 L16,20.0002994 C17.105,20.0002994 18,19.1070725 18,18.0042615 L18,4.03199649 C18,2.92918557 17.105,2.03595862 16,2.03595862 L16,2.03595862 Z"/>
</svg>
