<svg xmlns="http://www.w3.org/2000/svg" width="20" height="20" viewBox="0 0 20 20">
  <path fill="#444444" fill-rule="evenodd" d="M3,3.99406028 C3,2.8927712 3.79281354,1.59527016 4.80159435,1.15181994 C4.80159435,1.15181994 6.5,5.5109106e-16 10,0 C13.5,-5.5109107e-16 15.1984057,1.15181994 15.1984057,1.15181994 C16.1933987,1.62025685 17,2.89451376 17,3.99406028 L17,16.0059397 C17,17.1072288 16.1029399,18 14.9941413,18 L5.00585866,18 C3.89805351,18 3,17.1054862 3,16.0059397 L3,3.99406028 Z M6.5,16 C7.32842712,16 8,15.3284271 8,14.5 C8,13.6715729 7.32842712,13 6.5,13 C5.67157288,13 5,13.6715729 5,14.5 C5,15.3284271 5.67157288,16 6.5,16 Z M13.5,16 C14.3284271,16 15,15.3284271 15,14.5 C15,13.6715729 14.3284271,13 13.5,13 C12.6715729,13 12,13.6715729 12,14.5 C12,15.3284271 12.6715729,16 13.5,16 Z M5,4.99077797 L5,9.00922203 C5,9.54902482 5.44565467,10 5.99539757,10 L14.0046024,10 C14.5443356,10 15,9.55641359 15,9.00922203 L15,4.99077797 C15,4.45097518 14.5543453,4 14.0046024,4 L5.99539757,4 C5.4556644,4 5,4.44358641 5,4.99077797 Z M5,18 L7,18 L7,19 C7,19.5522847 6.55613518,20 6,20 C5.44771525,20 5,19.5561352 5,19 L5,18 Z M13,18 L15,18 L15,19 C15,19.5522847 14.5561352,20 14,20 C13.4477153,20 13,19.5561352 13,19 L13,18 Z"/>
</svg>
