<svg xmlns="http://www.w3.org/2000/svg" width="20" height="20" viewBox="0 0 20 20">
  <path fill="#444444" fill-rule="evenodd" d="M18.19,1.81836364 C19.19,1.81836364 20,2.63472727 20,3.62836364 L20,18.1901818 C20,19.1901818 19.1909091,20.0001818 18.19,20.0001818 L1.81,20.0001818 C0.81,20.0001818 0,19.1838182 0,18.1901818 L0,3.62836364 C0,2.62836364 0.809090909,1.81836364 1.81,1.81836364 L4.54545455,1.81836364 L4.54545455,3.63654545 L4.54545455,4.54563636 C4.54545455,5.54836364 5.36090909,6.36381818 6.36363636,6.36381818 C7.36636364,6.36381818 8.18181818,5.54836364 8.18181818,4.54563636 L8.18181818,3.63654545 L8.18181818,1.81836364 L11.8181818,1.81836364 L11.8181818,3.63654545 L11.8181818,4.54563636 C11.8181818,5.54836364 12.6336364,6.36381818 13.6363636,6.36381818 C14.6390909,6.36381818 15.4545455,5.54836364 15.4545455,4.54563636 L15.4545455,3.63654545 L15.4545455,1.81836364 L18.19,1.81836364 Z M2,18 L18,17.9919073 L17.992004,9 L2,9 L2,18 Z M6,15 C4.8954305,15 4,14.1045695 4,13 C4,11.8954305 4.8954305,11 6,11 C7.1045695,11 8,11.8954305 8,13 C8,14.1045695 7.1045695,15 6,15 Z M6.36363636,5.45454545 C5.86181818,5.45454545 5.45454545,5.04727273 5.45454545,4.54545455 L5.45454545,3.63636364 L5.45454545,1.81818182 L5.45454545,0.909090909 C5.45454545,0.407272727 5.86181818,0 6.36363636,0 C6.86545455,0 7.27272727,0.407272727 7.27272727,0.909090909 L7.27272727,1.81818182 L7.27272727,3.63636364 L7.27272727,4.54545455 C7.27272727,5.04727273 6.86545455,5.45454545 6.36363636,5.45454545 Z M13.6363636,5.45454545 C13.1345455,5.45454545 12.7272727,5.04727273 12.7272727,4.54545455 L12.7272727,3.63636364 L12.7272727,1.81818182 L12.7272727,0.909090909 C12.7272727,0.407272727 13.1345455,0 13.6363636,0 C14.1381818,0 14.5454545,0.407272727 14.5454545,0.909090909 L14.5454545,1.81818182 L14.5454545,3.63636364 L14.5454545,4.54545455 C14.5454545,5.04727273 14.1381818,5.45454545 13.6363636,5.45454545 Z"/>
</svg>
