<svg xmlns="http://www.w3.org/2000/svg" width="20" height="20" viewBox="0 0 20 20">
  <path fill="#444444" fill-rule="evenodd" d="M14.0241667,1.95455 L14.7658333,3.50495 C14.9483333,3.88575 15.2633333,4.1841 15.6491667,4.33965 L18.9483333,5.67415 C19.5833333,5.93085 20,6.5573 20,7.2543 L20,16.99485 C20,18.1024 19.1416667,19 18.0825,19 L1.91833333,19 C0.859166667,19 0,18.1024 0,16.99485 L0,7.22965 C0,6.5454 0.403333333,5.92745 1.02166667,5.66225 L4.1,4.34475 C4.4725,4.18495 4.77583333,3.89255 4.9525,3.5228 L5.7025,1.95455 C5.9825,1.36975 6.56333333,1 7.20083333,1 L12.5258333,1 C13.1633333,1 13.7441667,1.36975 14.0241667,1.95455 Z M10.0003333,16 C12.762,16 15.0003333,13.8890909 15.0003333,11.2856364 C15.0003333,10.1461818 14.5714444,9.10163636 13.8581111,8.28672727 L10.767,4.40036364 C10.6064444,4.16036364 10.3236667,4 10.0003333,4 C9.677,4 9.39422222,4.16036364 9.23366667,4.40036364 L6.14255556,8.28672727 C5.42922222,9.10163636 5.00033333,10.1461818 5.00033333,11.2856364 C5.00033333,13.8890909 7.23866667,16 10.0003333,16 Z M9.99988065,13.5333333 C8.77220359,13.5333333 7.77720574,12.5184355 7.77720574,11.2662049 C7.77720574,10.0148978 8.77220359,9 9.99988065,9 C11.2275577,9 12.2225556,10.0148978 12.2225556,11.2662049 C12.2225556,12.5184355 11.2275577,13.5333333 9.99988065,13.5333333 Z"/>
</svg>
