<svg xmlns="http://www.w3.org/2000/svg" width="20" height="20" viewBox="0 0 20 20">
  <path fill="#444444" fill-rule="evenodd" d="M14.0241667,1.95455 L14.7658333,3.50495 C14.9483333,3.88575 15.2633333,4.1841 15.6491667,4.33965 L18.9483333,5.67415 C19.5833333,5.93085 20,6.5573 20,7.2543 L20,16.99485 C20,18.1024 19.1416667,19 18.0825,19 L1.91833333,19 C0.859166667,19 0,18.1024 0,16.99485 L0,7.22965 C0,6.5454 0.403333333,5.92745 1.02166667,5.66225 L4.1,4.34475 C4.4725,4.18495 4.77583333,3.89255 4.9525,3.5228 L5.7025,1.95455 C5.9825,1.36975 6.56333333,1 7.20083333,1 L12.5258333,1 C13.1633333,1 13.7441667,1.36975 14.0241667,1.95455 Z M10,15 C12.2093686,15 14,13.2090039 14,10.9991852 C14,8.79099613 12.2093686,7 10,7 C7.79063136,7 6,8.79099613 6,10.9991852 C6,13.2090039 7.79063136,15 10,15 Z"/>
</svg>
