<svg xmlns="http://www.w3.org/2000/svg" width="20" height="20" viewBox="0 0 20 20">
  <path fill="#444444" fill-rule="evenodd" d="M16.5,15 C15.672,15 15,14.328 15,13.5 C15,12.672 15.672,12 16.5,12 C17.328,12 18,12.672 18,13.5 C18,14.328 17.328,15 16.5,15 L16.5,15 Z M3.5,15 C2.672,15 2,14.328 2,13.5 C2,12.672 2.672,12 3.5,12 C4.328,12 5,12.672 5,13.5 C5,14.328 4.328,15 3.5,15 L3.5,15 Z M18.3855556,3.161125 C18.05,1.96975 16.78,1 15.5488889,1 L4.45111111,1 C3.21888889,1 1.95333333,1.968625 1.62111111,3.163375 L0,8.993125 L0,14.503375 L0,17.864875 C0,18.501625 0.386666667,19 1,19 C1.61777778,19 2,18.4915 2,17.864875 L2,17 L18,17 L18,17.864875 C18,18.501625 18.3866667,19 19,19 C19.6177778,19 20,18.4915 20,17.864875 L20,14.50225 L20,8.909875 L18.3855556,3.161125 Z M2.02353476,7.8144 L2.73318669,4.1856 C2.86003269,3.5304 3.46455101,3 4.11592235,3 L15.8840313,3 C16.5205468,3 17.139921,3.5328 17.266767,4.1856 L17.9764189,7.8144 C18.1044076,8.4696 17.698729,9 17.0667845,9 L2.93316912,9 C2.3023674,9 1.895546,8.4672 2.02353476,7.8144 L2.02353476,7.8144 Z"/>
</svg>
