<svg xmlns="http://www.w3.org/2000/svg" width="20" height="20" viewBox="0 0 20 20">
  <path fill="#444444" fill-rule="evenodd" d="M18.0916905,14.16 C18.3550206,14.3396923 18.4758524,14.6547692 18.3966867,14.9534359 C18.317521,15.2537436 18.054191,15.4761026 17.731695,15.5146667 C17.7050287,15.5187692 17.5325308,15.5384615 17.2625342,15.5384615 C16.5825427,15.5384615 15.2833923,15.4129231 14.1309067,14.5907692 C15.1942267,13.4445128 15.8333854,12.0192821 15.8333854,10.4709744 C15.8333854,6.70482051 12.0950988,3.64102564 7.50015625,3.64102564 C7.45182352,3.64102564 7.40515744,3.64594872 7.35765803,3.64676923 C8.70180789,2.62933333 10.508452,2 12.5000937,2 C16.6358754,2 20,4.69620513 20,8.0094359 C20,9.6414359 19.1250109,11.1651282 17.5850302,12.302359 C17.3675329,12.462359 17.2675342,12.7380513 17.3500331,12.9932308 C17.6075299,13.7915897 18.0733574,14.1460513 18.0916905,14.16 Z M7.49990625,4.46153846 C11.6356879,4.46153846 14.9998125,7.15774359 14.9998125,10.4709744 C14.9998125,13.7850256 11.6356879,16.4804103 7.49990625,16.4804103 L6.78324854,16.4804103 C6.61908393,16.4804103 6.46491919,16.5493333 6.34575401,16.6609231 C5.09576964,17.8375385 3.51328942,18 2.73663246,18 C2.46663583,18 2.29497131,17.9803077 2.26830498,17.9762051 C1.94580901,17.937641 1.68247897,17.7152821 1.60331329,17.4157949 C1.52331429,17.1163077 1.64414611,16.8012308 1.90830948,16.6215385 C1.92664258,16.6075897 2.39163677,16.2539487 2.64996688,15.4547692 C2.73246584,15.1995897 2.63163377,14.9238974 2.41496981,14.7638974 C0.87415574,13.6266667 0,12.1029744 0,10.4709744 C0,7.15774359 3.36412462,4.46153846 7.49990625,4.46153846 Z"/>
</svg>
