<svg xmlns="http://www.w3.org/2000/svg" width="20" height="20" viewBox="0 0 20 20">
  <path fill="#444444" fill-rule="evenodd" d="M8.65143161,18.8734759 L7.67929095,19.7977637 C7.49286279,19.9749069 7.22357769,20.0456213 6.97857824,19.9699069 C6.27857982,19.7549064 5.6100099,19.4670487 4.98215417,19.114905 C4.76358323,18.9920476 4.63001211,18.7577614 4.62358355,18.5070466 L4.58429792,17.0891863 C4.57858365,16.8877573 4.48572672,16.7020426 4.33501277,16.5691852 C3.97929929,16.2541845 3.64858575,15.909898 3.34858642,15.5406115 C3.21501529,15.3756111 3.02073002,15.273468 2.80930192,15.2677537 L1.47073351,15.2306108 C1.21287695,15.2227536 0.972163208,15.0813248 0.852877763,14.8520385 C0.500021415,14.1741799 0.220022046,13.4520355 0.0221653496,12.6956053 C-0.0399773675,12.4577476 0.0314510429,12.202747 0.200022092,12.0234609 L1.43644788,10.7098866 C1.42144791,10.5013147 1.41430507,10.2913143 1.41430507,10.079171 C1.41430507,9.81917039 1.42573361,9.56131268 1.44787642,9.30702641 C1.46573352,9.10131168 1.40144795,8.8977398 1.25930542,8.74773947 L0.30073615,7.72845153 C0.125736545,7.54273684 0.0557367025,7.27416482 0.129307965,7.02987857 C0.373593129,6.22487681 0.71144951,5.462018 1.13144856,4.75344502 C1.25644828,4.54273027 1.48644776,4.41487285 1.73216149,4.40772997 L3.26787232,4.36487274 C3.46072903,4.35987273 3.64001434,4.27415825 3.77287118,4.13344366 C3.9471565,3.94772897 4.13072752,3.77058572 4.32072709,3.60129964 C4.47144103,3.46772792 4.56429797,3.28129894 4.56929796,3.07986992 L4.61001215,1.60772385 C4.61715499,1.35700901 4.75072612,1.12129421 4.97001134,0.998436797 C5.71929536,0.577007304 6.5264364,0.246292294 7.3757202,0.022720376 C7.61571966,-0.0408511918 7.87357622,0.0320061106 8.05286153,0.203435057 L9.37642998,1.46129495 C9.58571522,1.44558063 9.79714331,1.43843776 10.0107143,1.43843776 C10.2171424,1.43843776 10.4221419,1.44558063 10.6249986,1.45986638 L11.9471385,0.203435057 C12.1264238,0.0320061106 12.3842803,-0.0408511918 12.6242798,0.022720376 C13.4735636,0.246292294 14.2807046,0.577007304 15.0299887,0.998436797 C15.2492739,1.12129421 15.382845,1.35700901 15.3899878,1.60772385 L15.4299878,3.06129846 C15.435702,3.26344176 15.528559,3.44987073 15.6799872,3.58344246 C15.8778439,3.75844284 16.0678435,3.94201467 16.2492716,4.13415795 C16.3814142,4.27415825 16.5606995,4.35987273 16.7535562,4.36558702 L18.2685528,4.40772997 C18.5135522,4.41487285 18.7435517,4.54273027 18.8685514,4.75344502 C19.2885505,5.462018 19.6271212,6.22487681 19.870692,7.02987857 C19.9442633,7.27416482 19.8749777,7.54273684 19.6992638,7.72845153 L18.7599803,8.72702514 C18.6178377,8.87845405 18.5528379,9.08202592 18.5714092,9.28845494 C18.5949806,9.54845551 18.6071235,9.81202752 18.6071235,10.079171 C18.6071235,10.2977429 18.5992663,10.5156005 18.5828378,10.730601 L19.7999779,12.0234609 C19.968549,12.202747 20.0399774,12.4577476 19.9778347,12.6956053 C19.779978,13.4520355 19.4999786,14.1741799 19.1471222,14.8520385 C19.0278368,15.0813248 18.787123,15.2227536 18.5292665,15.2306108 L17.2121266,15.2670395 C17.0006985,15.2727538 16.8064132,15.3756111 16.6728421,15.5398972 C16.3671285,15.9163266 16.0299864,16.2670416 15.6657015,16.5870423 C15.5142733,16.7198998 15.4214164,16.9063288 15.4157021,17.1077578 L15.3771307,18.5070466 C15.3699879,18.7577614 15.2364168,18.9920476 15.0178458,19.114905 C14.3899901,19.4670487 13.7214202,19.7549064 13.0214218,19.9699069 C12.7764223,20.0456213 12.5071372,19.9749069 12.3214233,19.7977637 L11.3507112,18.8756188 C11.199283,18.732047 10.9949978,18.6663326 10.7878554,18.6849041 C10.5314274,18.7077613 10.2721422,18.7199042 10.0107143,18.7199042 C9.74285772,18.7199042 9.47714404,18.707047 9.21571605,18.6834755 C9.00785938,18.6641898 8.80285984,18.7299042 8.65143161,18.8734759 M9.99962905,15 C12.7617034,15 15,12.7614584 15,9.99963097 C15,7.23854159 12.7617034,5 9.99962905,5 C7.23829661,5 5,7.23854159 5,9.99963097 C5,12.7614584 7.23829661,15 9.99962905,15"/>
</svg>
