<svg xmlns="http://www.w3.org/2000/svg" width="20" height="20" viewBox="0 0 20 20">
  <path fill="#444444" fill-rule="evenodd" d="M10,1 C4.48583333,1 0,4.58445455 0,8.99036364 C0,11.1601818 1.16583333,13.1851818 3.22,14.6971818 C3.50916667,14.9099091 3.64333333,15.2772727 3.53333333,15.616 C3.18916667,16.678 2.56833333,17.1492727 2.54416667,17.1672727 C2.1925,17.4061818 2.03166667,17.8250909 2.1375,18.2227273 C2.24333333,18.6211818 2.59416667,18.9173636 3.02416667,18.9689091 C3.06,18.9738182 3.28916667,19 3.64916667,19 C4.685,19 6.795,18.784 8.46166667,17.2196364 C8.62,17.0715455 8.82583333,16.9799091 9.04416667,16.9799091 L10,16.9799091 C15.5141667,16.9799091 20,13.3954545 20,8.99036364 C20,4.58445455 15.5141667,1 10,1"/>
</svg>
