<svg xmlns="http://www.w3.org/2000/svg" width="20" height="20" viewBox="0 0 20 20">
  <path fill="#444444" fill-rule="evenodd" d="M19.5311479,13.0349551 C19.3573735,13.0118995 19.1800764,13 19,13 C17.5058516,13 16.2030434,13.8192252 15.5162447,15.0330063 C15.3472402,15.0112293 15.1749315,15 15,15 C12.790861,15 11,16.790861 11,19 C11,19.3233989 11.0383789,19.637834 11.1108307,19.938999 C10.7461057,19.9793069 10.3754694,20 10,20 C4.4771525,20 0,15.5228475 0,10 C0,4.4771525 4.4771525,0 10,0 C15.5228475,0 20,4.4771525 20,10 C20,11.0580753 19.835673,12.07777 19.5311479,13.0349551 Z M5,10 C6.1045695,10 7,9.1045695 7,8 C7,6.8954305 6.1045695,6 5,6 C3.8954305,6 3,6.8954305 3,8 C3,9.1045695 3.8954305,10 5,10 Z M11,6 C12.1045695,6 13,5.1045695 13,4 C13,2.8954305 12.1045695,2 11,2 C9.8954305,2 9,2.8954305 9,4 C9,5.1045695 9.8954305,6 11,6 Z M7,13 C7.55228475,13 8,12.5522847 8,12 C8,11.4477153 7.55228475,11 7,11 C6.44771525,11 6,11.4477153 6,12 C6,12.5522847 6.44771525,13 7,13 Z"/>
</svg>
