<svg xmlns="http://www.w3.org/2000/svg" width="20" height="20" viewBox="0 0 20 20">
  <path fill="#444444" fill-rule="evenodd" d="M3,7 L17,7 L17,16.9914698 C17,18.1007504 16.1029399,19 14.9941413,19 L5.00585866,19 C3.89805351,19 3,18.0980496 3,16.9914698 L3,7 Z M1,5 C0.44771525,5 0,4.55228475 0,4 C0,3.44771525 0.44771525,3 1,3 L19,3 C19.5522847,3 20,3.44771525 20,4 C20,4.55228475 19.5522847,5 19,5 L1,5 Z M5,2 C5,1.44771525 5.4556644,1 5.99539757,1 L14.0046024,1 C14.5543453,1 15,1.44386482 15,2 L15,3 L5,3 L5,2 Z"/>
</svg>
