<svg xmlns="http://www.w3.org/2000/svg" width="20" height="20" viewBox="0 0 20 20">
  <path fill="#444444" d="M10,8.58578644 L1.70710678,0.292893219 C1.31658249,-0.0976310729 0.683417511,-0.0976310729 0.292893219,0.292893219 C-0.0976310729,0.683417511 -0.0976310729,1.31658249 0.292893219,1.70710678 L8.58578644,10 L0.292893219,18.2928932 C-0.0976310729,18.6834175 -0.0976310729,19.3165825 0.292893219,19.7071068 C0.683417511,20.0976311 1.31658249,20.0976311 1.70710678,19.7071068 L10,11.4142136 L18.2928932,19.7071068 C18.6834175,20.0976311 19.3165825,20.0976311 19.7071068,19.7071068 C20.0976311,19.3165825 20.0976311,18.6834175 19.7071068,18.2928932 L11.4142136,10 L19.7071068,1.70710678 C20.0976311,1.31658249 20.0976311,0.683417511 19.7071068,0.292893219 C19.3165825,-0.0976310729 18.6834175,-0.0976310729 18.2928932,0.292893219 L10,8.58578644 Z"/>
</svg>
