<svg xmlns="http://www.w3.org/2000/svg" width="20" height="20" viewBox="0 0 20 20">
  <path fill="#444444" fill-rule="evenodd" d="M8,7 L11,7 L7.9144655,3.65548976 C7.56004327,3.29347276 7.00557743,3 6.5,3 L5,3 C5,3 6.5,7 8,7 Z M13.8332164,12.1420179 L8.84074873,16.3931536 C8.45840755,16.7312784 7.75202218,17 7.25548455,17 L5.45454545,17 L8.49103061,12.3006777 C5.3526838,12.0993434 0.911328793,11.4285714 0.911328793,11.4285714 C0.399507582,11.4285714 2.52506349e-14,11.0166698 2.52159404e-14,10.5085633 L2.48689958e-14,6 C2.48689958e-14,6 1.14425403,6.46638104 1.5,7 C1.85574597,7.53361896 2,9 2,9 L16.5,8.5 C18.0038005,8.5 20,9.89006391 20,11.4285714 C20,11.4285714 16.8892896,11.8677247 13.8332164,12.1420179 Z"/>
</svg>
