<svg xmlns="http://www.w3.org/2000/svg" width="20" height="20" viewBox="0 0 20 20">
  <path fill="#444444" fill-rule="evenodd" d="M10.809,0.370875375 C10.407,-0.123625125 9.593,-0.123625125 9.191,0.370875375 L2.195,8.99736388 C2.068,9.1537133 2,9.34278702 2,9.53640578 L2,19.0909917 C2,19.5927643 2.448,20 3,20 L7,20 C7.552,20 8,19.5927643 8,19.0909917 L8,16.4612308 C8,15.5558586 8.681,14.7159349 9.664,14.5704936 C10.917,14.3859649 12,15.2595219 12,16.3639669 L12,19.0909917 C12,19.5927643 12.448,20 13,20 L17,20 C17.55,20 18,19.5909463 18,19.0909917 L18,9.53640578 C18,9.34278702 17.932,9.1537133 17.805,8.99736388 L10.809,0.370875375 Z"/>
</svg>
