<svg xmlns="http://www.w3.org/2000/svg" width="20" height="20" viewBox="0 0 20 20">
  <path fill="#444444" d="M4,18 L6,18 L6,16.4612308 C6,14.5429151 7.42850466,12.8794772 9.372604,12.5918354 C11.7734151,12.2382691 14,13.9751423 14,16.3639669 L14,18 L16,18 L16,9.94686737 L9.99999996,2.54850669 L4,9.94686644 L4,18 Z M10.809,0.370875375 L17.805,8.99736388 C17.932,9.1537133 18,9.34278702 18,9.53640578 L18,19.0909917 C18,19.5909463 17.55,20 17,20 L13,20 C12.448,20 12,19.5927643 12,19.0909917 L12,16.3639669 C12,15.2595219 10.917,14.3859649 9.664,14.5704936 C8.681,14.7159349 8,15.5558586 8,16.4612308 L8,19.0909917 C8,19.5927643 7.552,20 7,20 L3,20 C2.448,20 2,19.5927643 2,19.0909917 L2,9.53640578 C2,9.34278702 2.068,9.1537133 2.195,8.99736388 L9.191,0.370875375 C9.593,-0.123625125 10.407,-0.123625125 10.809,0.370875375 Z"/>
</svg>
