<svg xmlns="http://www.w3.org/2000/svg" width="20" height="20" viewBox="0 0 20 20">
  <path fill="#444444" fill-rule="evenodd" d="M18.0555556,5.5625 L18,17 C19.2272222,17 20,17.7574375 20,19 L17.2222222,19 L12.7777778,19 L9.44444444,19 L2.77722222,19 L0,19 C0,17.7574375 0.772777778,17 2,17 L2,1.5625 C2,1.25171875 2.24861111,1 2.55555556,1 L13.4444444,1 C13.7511111,1 14,1.25171875 14,1.5625 L14,5 L17.5,5 C17.8066667,5 18.0555556,5.25171875 18.0555556,5.5625 Z M11,13.9940877 L11,12.5059123 C11,12.2307129 10.7740451,12 10.4953156,12 L9.50468445,12 C9.21403503,12 9,12.2265047 9,12.5059123 L9,13.9940877 C9,14.2692871 9,14.7265047 9,15.0059123 L9,16.4940877 C9,16.7692871 9.22595492,17 9.50468445,17 L10.4953156,17 C10.785965,17 11,16.7734953 11,16.4940877 L11,15.0059123 C11,14.7307129 11,14.2734953 11,13.9940877 Z M16,13.4953156 L16,12.5046844 C16,12.214035 15.7740451,12 15.4953156,12 L14.5046844,12 C14.214035,12 14,12.2259549 14,12.5046844 L14,13.4953156 C14,13.785965 14.2259549,14 14.5046844,14 L15.4953156,14 C15.785965,14 16,13.7740451 16,13.4953156 Z M6,13.4953156 L6,12.5046844 C6,12.214035 5.77404508,12 5.49531555,12 L4.50468445,12 C4.21403503,12 4,12.2259549 4,12.5046844 L4,13.4953156 C4,13.785965 4.22595492,14 4.50468445,14 L5.49531555,14 C5.78596497,14 6,13.7740451 6,13.4953156 Z M16,8.49531555 L16,7.50468445 C16,7.21403503 15.7740451,7 15.4953156,7 L14.5046844,7 C14.214035,7 14,7.22595492 14,7.50468445 L14,8.49531555 C14,8.78596497 14.2259549,9 14.5046844,9 L15.4953156,9 C15.785965,9 16,8.77404508 16,8.49531555 Z M11,8.49531555 L11,7.50468445 C11,7.21403503 10.7740451,7 10.4953156,7 L9.50468445,7 C9.21403503,7 9,7.22595492 9,7.50468445 L9,8.49531555 C9,8.78596497 9.22595492,9 9.50468445,9 L10.4953156,9 C10.785965,9 11,8.77404508 11,8.49531555 Z M6,8.49531555 L6,7.50468445 C6,7.21403503 5.77404508,7 5.49531555,7 L4.50468445,7 C4.21403503,7 4,7.22595492 4,7.50468445 L4,8.49531555 C4,8.78596497 4.22595492,9 4.50468445,9 L5.49531555,9 C5.78596497,9 6,8.77404508 6,8.49531555 Z M11,4.49531555 L11,3.50468445 C11,3.21403503 10.7740451,3 10.4953156,3 L9.50468445,3 C9.21403503,3 9,3.22595492 9,3.50468445 L9,4.49531555 C9,4.78596497 9.22595492,5 9.50468445,5 L10.4953156,5 C10.785965,5 11,4.77404508 11,4.49531555 Z M6,4.49531555 L6,3.50468445 C6,3.21403503 5.77404508,3 5.49531555,3 L4.50468445,3 C4.21403503,3 4,3.22595492 4,3.50468445 L4,4.49531555 C4,4.78596497 4.22595492,5 4.50468445,5 L5.49531555,5 C5.78596497,5 6,4.77404508 6,4.49531555 Z"/>
</svg>
