<svg xmlns="http://www.w3.org/2000/svg" width="20" height="20" viewBox="0 0 20 20">
  <path fill="#444444" fill-rule="evenodd" d="M11.057872,17.8532 C11.6064855,17.8532 12.2385339,17.6324 12.2453916,17.63 C12.5014112,17.5412 12.7860044,17.6516 12.9231578,17.8976 C13.0591682,18.1448 13.0111645,18.4604 12.8065774,18.6488 C12.7471443,18.704 11.3230352,20 9.20858741,20 C8.84513099,20 8.47710279,19.9592 8.11821814,19.8836 C7.10899794,19.6676 6.32950964,19.064 5.92262131,18.1844 C5.42429741,17.1104 5.5237336,15.7364 6.20264277,14.3144 L7.3455875,11.9204 C7.95477704,10.646 7.59703534,10.3796 7.40387768,10.238 C7.36616051,10.2104 7.24500837,10.1444 6.9444139,10.1444 C6.39580043,10.1444 5.76260905,10.3664 5.75689433,10.3688 C5.49630293,10.4624 5.21399558,10.3496 5.07684221,10.1024 C4.94083179,9.8552 4.98883547,9.5408 5.19342257,9.3512 C5.2528557,9.296 6.67582189,8 8.7891267,8 C9.15372607,8 9.52175427,8.0384 9.88406775,8.1164 C10.8910021,8.3324 11.6716333,8.936 12.0785216,9.8156 C12.5768455,10.8908 12.4762664,12.2648 11.7985002,13.6856 L10.6555554,16.0784 C10.045223,17.3552 10.4018217,17.618 10.5938364,17.7584 C10.6326965,17.7872 10.7549916,17.8532 11.057872,17.8532 Z M11.875,5 C10.4942881,5 9.375,3.88071187 9.375,2.5 C9.375,1.11928813 10.4942881,0 11.875,0 C13.2557119,0 14.375,1.11928813 14.375,2.5 C14.375,3.88071187 13.2557119,5 11.875,5 Z"/>
</svg>
