<svg xmlns="http://www.w3.org/2000/svg" width="20" height="20" viewBox="0 0 20 20">
  <path fill="#444444" fill-rule="evenodd" d="M18.5186008,0 C19.3341111,0 20,0.645925926 20,1.44111111 L20,18.557037 C20,19.3533333 19.3341111,20 18.5186008,20 L1.47621428,20 C0.661444735,20 0,19.3533333 0,18.557037 L0,1.44111111 C0,0.645925926 0.661444735,0 1.47621428,0 L18.5186008,0 Z M3,7 L3,17 L6,17 L6,7 L3,7 Z M17,17 L17,11.6482659 C17,9.02029381 16.4605189,7 13.5396813,7 C12.1356611,7 11.1936414,7.80910192 10.8084007,8.5761775 L10.7691199,8.5761775 L10.7691199,7.24307133 L8,7.24307133 L8,17 L10.8855209,17 L10.8855209,12.1737846 C10.8855209,10.9004998 11.1147193,9.66810541 12.6167614,9.66810541 C14.0957396,9.66810541 14.1170017,11.1235045 14.1170017,12.255187 L14.1170017,17 L17,17 Z M4.44827139,5.44 C5.39636687,5.44 6.16706479,4.66925926 6.16706479,3.71962963 C6.16706479,2.77111111 5.39636687,2 4.44827139,2 C3.49721312,2 2.72873729,2.77111111 2.72873729,3.71962963 C2.72873729,4.66925926 3.49721312,5.44 4.44827139,5.44 Z"/>
</svg>
