<svg xmlns="http://www.w3.org/2000/svg" width="20" height="20" viewBox="0 0 20 20">
  <path fill="#444444" fill-rule="evenodd" d="M18.5782152,1.42160569 C19.4951344,2.33840935 20,3.55681423 20,4.85281941 C20,6.1496246 19.4951344,7.36802947 18.5782152,8.28483314 L15.1465691,11.7160469 C14.200046,12.6616506 12.9574845,13.1352525 11.7141228,13.1352525 C10.4715613,13.1352525 9.22899977,12.6616506 8.28247672,11.7160469 C7.96723574,11.4008456 7.96723574,10.8880436 8.28247672,10.5720423 C8.59851781,10.256841 9.11058438,10.256841 9.42662546,10.5720423 C10.6899897,11.8336473 12.7414564,11.8320473 14.0032204,10.5720423 L17.4340664,7.14082856 C18.046146,6.52962612 18.3821897,5.71682287 18.3821897,4.85281941 C18.3821897,3.98881596 18.046146,3.17681271 17.4340664,2.56561026 C16.822787,1.95440782 16.0106814,1.61760647 15.1465691,1.61760647 C14.2824567,1.61760647 13.4703511,1.95440782 12.8590717,2.56561026 L10.5715743,4.85281941 C10.2555332,5.16882068 9.74346665,5.16882068 9.42742557,4.85281941 C9.11138448,4.53681815 9.11138448,4.0248161 9.42742557,3.70881484 L11.7149229,1.42160569 C12.6318421,0.504802019 13.8504006,0 15.1465691,0 C16.4427376,0 17.6620961,0.504802019 18.5782152,1.42160569 Z M9.42662546,15.1479806 C9.74266655,14.8319793 10.2547331,14.8319793 10.5707742,15.1479806 C10.8868153,15.4639819 10.8868153,15.9759839 10.5707742,16.2919852 L8.28247672,18.5791943 C7.36635763,19.495998 6.14779921,20 4.85163071,20 C3.55466211,20 2.33610369,19.495998 1.41918449,18.5791943 C-0.473061498,16.6871867 -0.473061498,13.6079744 1.41918449,11.7159669 L4.85163071,8.28475314 C5.76774981,7.36794947 6.98630822,6.86314745 8.28247672,6.86314745 C9.57944533,6.86314745 10.7980037,7.36794947 11.7141228,8.28475314 C12.0301639,8.6007544 12.0301639,9.11275645 11.7141228,9.42795771 C11.3980818,9.74395898 10.8868153,9.74395898 10.5707742,9.42795771 C9.95869463,8.81755527 9.14738916,8.48075392 8.28247672,8.48075392 C7.41836439,8.48075392 6.60625881,8.81755527 5.99497935,9.42795771 L2.56253313,12.8599714 C1.3015692,14.1207765 1.3015692,16.1735847 2.56253313,17.4351897 C3.78589217,18.6575946 5.91576905,18.6575946 7.13912809,17.4351897 L9.42662546,15.1479806 Z"/>
</svg>
