<svg xmlns="http://www.w3.org/2000/svg" width="20" height="20" viewBox="0 0 20 20">
  <path fill="#444444" d="M9.99881655,20 C15.521664,20 19.9988165,15.5228475 19.9988165,10 C19.9988165,4.4771525 15.521664,0 9.99881655,0 C4.53704062,0 0.0878358819,4.38237163 0.00013194689,9.83630467 C-0.00874811889,10.388518 0.431710539,10.8433741 0.983923894,10.8522542 C1.53613725,10.8611342 1.99099334,10.4206756 1.9998734,9.86846223 C2.07002556,5.50599923 5.62949283,2 9.99881655,2 C14.4170945,2 17.9988165,5.581722 17.9988165,10 C17.9988165,14.418278 14.4170945,18 9.99881655,18 C9.4465318,18 8.99881655,18.4477153 8.99881655,19 C8.99881655,19.5522847 9.4465318,20 9.99881655,20 Z"/>
</svg>
