<svg xmlns="http://www.w3.org/2000/svg" width="20" height="20" viewBox="0 0 20 20">
  <g fill="#444444" fill-rule="evenodd">
    <path fill-rule="nonzero" d="M18.3889894,7.87835613 C17.7736949,8.68180325 15.0403109,10.3239194 10.4604646,11.5674951 C7.98122483,12.240692 5.52922222,12.6266682 3.73318383,12.6266682 C2.67010928,12.6266682 2.06861933,12.4894657 1.76781233,12.3680524 C1.62075665,12.308665 1.57446594,12.1244719 1.67167644,11.9979072 C1.93702143,11.6524718 2.59579617,11.1521183 3.62084617,10.5956441 C3.68974494,10.5582443 3.77496944,10.5951415 3.79865211,10.6706112 C3.86895617,10.8947589 3.9690185,11.1291256 4.05176311,11.3079997 C4.13711167,11.4924441 4.32231583,11.6087898 4.5230605,11.5974401 C6.13596122,11.5061812 8.15473239,11.1528721 10.2038404,10.596733 C12.5614431,9.95645465 14.3458675,9.23015254 15.5784404,8.6044907 C15.7617847,8.5114309 15.8696999,8.31647435 15.8505637,8.10958174 C15.8357259,7.94909333 15.8049756,7.72327042 15.7443844,7.41213571 C15.7295466,7.3359121 15.7860047,7.26262012 15.8626324,7.25993974 C16.0215087,7.25441145 16.1765826,7.25122851 16.3263248,7.25122851 C17.3909699,7.25122851 17.9927492,7.38880793 18.2931429,7.51034685 C18.4392066,7.56948301 18.4854147,7.75241969 18.3889894,7.87835613 M17.5923089,10.2865693 C19.4015795,9.21606094 20.1575064,8.22375208 19.9021172,7.25826453 C19.6437572,6.28109459 18.47409,5.80612099 16.3263248,5.80612099 C15.998446,5.80612099 15.6492818,5.82111444 15.2901154,5.84373024 C15.2409729,5.84682941 15.1944342,5.82115633 15.1722808,5.77659482 C14.9271879,5.28361232 13.3555355,2.44164434 9.67744889,2.4003496 C6.41655739,2.36370364 3.47779961,5.21295889 3.47779961,8.68251523 C3.47779961,8.72226041 3.48995094,8.85351579 3.49863044,8.94205241 C3.50367283,8.99381748 3.47606372,9.0425252 3.43010361,9.06564356 C1.36309923,10.1066822 -0.177306972,11.3536921 0.157308767,12.6193809 C0.415792811,13.5966765 1.58554264,14.0717757 3.73318383,14.0717757 C4.26656033,14.0717757 4.84717817,14.0387734 5.45875289,13.9801818 C5.62118367,13.964602 5.78179594,14.0292664 5.886694,14.155873 C6.83495106,15.3005673 7.93419017,16.627277 7.93836461,16.6320095 C8.36485917,17.1693022 8.99858733,17.4775471 9.67740756,17.4775471 L9.67744889,17.4775471 C9.67790356,17.4775471 9.67835817,17.4774633 9.67881283,17.4774633 C10.3569718,17.4770446 10.9902867,17.1689671 11.4069031,16.64382 C11.4141947,16.6352147 12.0355768,15.8852653 12.746032,15.0277117 C12.6939813,14.7673661 12.6666667,14.4979931 12.6666667,14.2222222 C12.6666667,11.9904993 14.4555366,10.1777778 16.6666667,10.1777778 C16.9853493,10.1777778 17.2952605,10.2154325 17.5923089,10.2865693 Z"/>
    <path d="M16.6666667,17.6 C14.8257175,17.6 13.3333333,16.0877174 13.3333333,14.2222222 C13.3333333,12.3567271 14.8257175,10.8444444 16.6666667,10.8444444 C18.5076158,10.8444444 20,12.3567271 20,14.2222222 C20,16.0877174 18.5076158,17.6 16.6666667,17.6 Z M16.042989,15.4378771 L16.0534892,15.4378771 C16.2482544,15.6308426 16.4955991,15.7245686 16.8113919,15.7245686 C17.406135,15.7245686 17.9166667,15.2890456 17.9166667,14.5723167 C17.9166667,14.0044469 17.5640314,13.6295426 17.1798168,13.5413298 L17.1798168,13.5137633 C17.4377143,13.3759308 17.6219267,13.0341338 17.6219267,12.6757694 C17.6219267,12.1134129 17.2377122,11.6888889 16.6324426,11.6888889 C16.2640177,11.6888889 16.0114098,11.8157223 15.8219341,12.0031469 C15.6061423,12.2126523 15.4166667,12.5544768 15.4166667,13.3373653 L15.4166667,15.812809 C15.4166667,16.1931715 15.4377195,16.5901566 15.5061676,16.7555556 L16.1114108,16.7555556 C16.0534892,16.5295103 16.042989,16.1049863 16.042989,15.7797016 L16.042989,15.4378771 Z M16.042989,14.8590083 L16.042989,13.2270993 C16.042989,12.521397 16.2429912,12.2181656 16.5851,12.2181656 C16.8535239,12.2181656 17.03771,12.4442109 17.03771,12.7805221 C17.03771,13.0892668 16.864024,13.3649318 16.5429943,13.4034973 C16.511415,13.4145515 16.485099,13.4145515 16.4535197,13.4145515 L16.4535197,13.8500745 C16.4955991,13.8500745 16.5377311,13.8445612 16.5798105,13.8500745 C16.9640251,13.8721277 17.2640282,14.1036863 17.2640282,14.5557768 C17.2640282,14.9141412 17.03771,15.2118594 16.6587587,15.2118594 C16.3798347,15.2118594 16.164043,15.0409471 16.042989,14.8590083 Z"/>
  </g>
</svg>
