<svg xmlns="http://www.w3.org/2000/svg" width="20" height="20" viewBox="0 0 20 20">
  <path fill="#444444" fill-rule="evenodd" d="M15,4 L16,4 L16,19 L4,19 L4,4 L5,4 L5,3.00773043 C5,1.89889153 5.88743329,1 6.99961498,1 L13.000385,1 C14.1047419,1 15,1.8926777 15,3.00773043 L15,4 Z M13,4 L13,3.00773043 C13,2.99853897 13.0014582,3 13.000385,3 L6.99961498,3 C6.99774171,3 7,2.9977264 7,3.00773043 L7,4 L13,4 Z M18,4 L18.1898591,4 C19.1895723,4 20,4.80646515 20,5.80935048 L20,17.1906495 C20,18.1899262 19.1912055,19 18.1898591,19 L18,19 L18,4 Z M2,4 L1.81014091,4 C0.808794498,4 0,4.8100738 0,5.80935048 L0,17.1906495 C0,18.1935349 0.810427689,19 1.81014091,19 L2,19 L2,4 Z"/>
</svg>
