<svg xmlns="http://www.w3.org/2000/svg" width="20" height="20" viewBox="0 0 20 20">
  <path fill="#444444" fill-rule="evenodd" d="M19.8515,15.746 L12.7475,9.878 L19.7655,4.08 C19.9105,4.358 19.9995,4.67 19.9995,5.006 L19.9995,14.994 C19.9995,15.26 19.9455,15.513 19.8515,15.746 Z M8.7792,9.843 L0.8982,3.333 C1.2132,3.123 1.5882,3 1.9902,3 L18.0092,3 C18.4132,3 18.7892,3.123 19.1032,3.332 L11.2202,9.843 C10.5572,10.39 9.4402,10.388 8.7792,9.843 Z M0.235,4.0812 L7.252,9.8782 L0.148,15.7472 C0.054,15.5142 0,15.2602 0,14.9942 L0,5.0052 C0,4.6702 0.09,4.3592 0.235,4.0812 Z M11.9632,10.5261 L19.2512,16.5471 C18.9092,16.8261 18.4802,17.0001 18.0092,17.0001 L1.9902,17.0001 C1.5172,17.0001 1.0882,16.8261 0.7472,16.5491 L8.0372,10.5261 L8.1422,10.6131 C8.6632,11.0441 9.3312,11.2591 10.0002,11.2591 C10.6682,11.2591 11.3372,11.0441 11.8572,10.6131 L11.9632,10.5261 Z"/>
</svg>
