<svg xmlns="http://www.w3.org/2000/svg" width="20" height="20" viewBox="0 0 20 20">
  <path fill="#444444" fill-rule="evenodd" d="M10,17 L13,17 C13,18.6568542 11.6568542,20 10,20 C8.34314575,20 7,18.6568542 7,17 L10,17 Z M9.12531952,0.957333333 C9.12510069,0.955363957 9.11156137,0.85990694 9.11156137,0.85990694 C9.12687437,0.382636829 9.51902328,0 10,0 C10.4809767,0 10.8731256,0.382636829 10.8884386,0.85990694 L10.8755052,0.951493097 C11.2088779,1.00452728 11.5345707,1.07817006 11.8495515,1.17608074 C14.3828758,1.96419261 16,4.2090019 16,7 L16,11.5 L16,12 L17.94857,13.768 C18.1565733,14.3715556 17.7076773,15 17.069445,15 L13.5556117,15 L6.44438828,15 L2.93055499,15 C2.29232269,15 1.84342671,14.3715556 2.05142999,13.768 L4,12 L4,11.5 L4,7 C4,4.2090019 5.61712425,1.96419261 8.14909294,1.17650229 C8.46542927,1.07817006 8.79112207,1.00452728 9.12531952,0.957333333 Z"/>
</svg>
