<svg xmlns="http://www.w3.org/2000/svg" width="20" height="20" viewBox="0 0 20 20">
  <path fill="#444444" fill-rule="evenodd" d="M19.4709114,18.332283 C19.4842638,18.3189306 19.4976162,18.3055782 19.5103328,18.2915899 C19.5338585,18.2693359 19.5573841,18.2458102 19.5809098,18.2222846 C19.7888259,18.0143685 19.9115409,17.7543144 19.9496906,17.4834512 C20.0921163,16.8946735 19.9318874,16.2499428 19.4721831,15.7902384 L16.9263239,13.2443789 C16.2243687,12.5424236 15.0875065,12.5424236 14.3855513,13.2443789 L12.1779531,15.4519774 C11.8822927,15.7476379 11.4187734,15.8105849 11.0684316,15.583594 C9.87116564,14.80979 8.63193498,13.7892844 7.42131663,12.5786658 C6.21006244,11.3674115 5.18955695,10.1281806 4.41638892,8.93155036 C4.18939798,8.58120854 4.25234505,8.11768916 4.54800552,7.82202865 L6.7556037,5.61443016 C7.45755888,4.91247487 7.45692305,3.77497669 6.7556037,3.07365724 L4.20974451,0.527797685 C3.74813268,0.0661857886 3.10467376,-0.0914998179 2.51780362,0.0502900622 C2.24757631,0.0878039766 1.98561478,0.211154814 1.7776987,0.419070916 C1.75417303,0.442596591 1.73064736,0.466122267 1.70839335,0.489647942 C1.69440511,0.502364523 1.6810527,0.515716933 1.66770029,0.529069343 C1.60030242,0.596467224 1.53417621,0.670223395 1.47186497,0.749066198 C-1.45867075,4.175549 0.150612373,10.4569043 4.84684513,15.1531377 C9.54498538,19.8512786 15.8301547,21.460562 19.2553654,18.5236675 C19.3323007,18.4619921 19.4047852,18.3984092 19.4709114,18.332283 Z"/>
</svg>
