<svg xmlns="http://www.w3.org/2000/svg" width="20" height="20" viewBox="0 0 20 20">
  <path fill="#444444" fill-rule="evenodd" d="M2,7.85727273 C2,3.51818182 5.58133333,0 10,0 C14.4186667,0 18,3.51818182 18,7.85727273 C18,9.75636364 17.3137778,11.4972727 16.1724444,12.8554545 L11.2266667,19.3327273 C10.9697778,19.7327273 10.5173333,20 10,20 C9.48266667,20 9.03022222,19.7327273 8.77333333,19.3327273 L3.82755556,12.8554545 C2.68622222,11.4972727 2,9.75636364 2,7.85727273 Z M10,12 C12.2093686,12 14,10.2090039 14,7.99918517 C14,5.79099613 12.2093686,4 10,4 C7.79063136,4 6,5.79099613 6,7.99918517 C6,10.2090039 7.79063136,12 10,12 Z"/>
</svg>
