<svg xmlns="http://www.w3.org/2000/svg" width="20" height="20" viewBox="0 0 20 20">
  <path fill="#444444" d="M7.04317635,19 L11.2769231,19 C11.4438158,19 11.5994823,18.9383851 11.7233085,18.8339851 L7,16 L7,15.5 L7,5 L4.86153846,5 L2.72307692,5 C2.33047622,5 2,5.34096753 2,5.77777778 L2,11.9800214 L2,18.1822649 C2,18.4078912 2.09131438,18.6123249 2.23815027,18.7603522 C2.38498616,18.9083794 2.58734357,19 2.80942962,19 L7.04317635,19 Z M13,16 L13,16.75 L13,18.2222222 C13,19.2044444 12.2289231,20 11.2769231,20 L2.80942962,20 C1.81333637,20 1,19.1861723 1,18.1822649 L1,5.77777778 C1,4.79555556 1.77107692,4 2.72307692,4 L7,4 L7,1.77777778 C7,0.795555556 7.82615385,0 8.84615385,0 L17.1538462,0 C18.1738462,0 19,0.795555556 19,1.77777778 L19,14.2222222 C19,15.2044444 18.1738462,16 17.1538462,16 L13,16 Z M17.1538462,15 C17.6298292,15 18,14.6435393 18,14.2222222 L18,1.77777778 C18,1.35646072 17.6298292,1 17.1538462,1 L8.84615385,1 C8.37017075,1 8,1.35646072 8,1.77777778 L8,15 L17.1538462,15 Z"/>
</svg>
