<svg xmlns="http://www.w3.org/2000/svg" xmlns:xlink="http://www.w3.org/1999/xlink" width="20" height="20" viewBox="0 0 20 20">
  <defs>
    <path id="a" d="M1,9.56444444 L1,18.1822649 C1,19.1861723 1.81333637,20 2.80942962,20 L7.03076923,20 L11.2769231,20 C12.2289231,20 13,19.2044444 13,18.2222222 L13,5.77777778 C13,4.79555556 12.2289231,4 11.2769231,4 L2.72307692,4 C1.77107692,4 1,4.79555556 1,5.77777778 L1,7.55555556 L1,9.56444444 Z"/>
  </defs>
  <g fill="none" fill-rule="evenodd">
    <mask id="b" fill="white">
      <use xlink:href="#a"/>
    </mask>
    <use fill="#919191" xlink:href="#a"/>
    <polygon fill="#B5B5B5" points="7 16 13 20 13 16" mask="url(#b)"/>
    <path fill="#444444" d="M7,5.56444444 L7,16 L8.71460947,16 L13.4615385,16 L17.1538462,16 C18.1738462,16 19,15.2044444 19,14.2222222 L19,1.77777778 C19,0.795555556 18.1738462,0 17.1538462,0 L8.84615385,0 C7.82615385,0 7,0.795555556 7,1.77777778 L7,3.55555556 L7,5.56444444 Z"/>
  </g>
</svg>
