<svg xmlns="http://www.w3.org/2000/svg" width="20" height="20" viewBox="0 0 20 20">
  <path fill="#444444" fill-rule="evenodd" d="M14.8951049,9.83048935 L14.4972561,19.0044225 C14.4734109,19.5542648 14.0115137,20 13.4552917,20 L13.5447077,20 C12.9930919,20 12.5266275,19.555163 12.5027434,19.0044225 L12.1048806,9.83016749 C10.7522852,9.37632808 9.86829649,8.06494315 10.01469,6.53054998 L10.5904442,0.495901563 C10.6165745,0.222022697 10.8590406,8.83329676e-09 11.1371517,8.83329676e-09 L11.0924437,8.83329676e-09 C11.3682516,8.83329676e-09 11.5918381,0.227880486 11.5918381,0.491005191 L11.5918381,5.50899482 C11.5918381,5.78016949 11.8131215,6 12.0912325,6 L12.0465245,6 C12.3223324,6 12.5640369,5.77211952 12.5849571,5.50899482 L12.9839211,0.491005181 C13.0054813,0.219830507 13.2442427,-6.18546992e-10 13.5223537,1.18470817e-10 L13.4776457,-9.13159737e-15 C13.7534536,7.30905278e-10 13.9951582,0.227880479 14.0160783,0.491005184 L14.4150423,5.50899482 C14.4366025,5.78016949 14.6753639,6 14.9534749,6 L14.908767,6 C15.1845749,6 15.4081614,5.77211952 15.4081614,5.50899482 L15.4081614,0.491005191 C15.4081614,0.219830517 15.6294447,8.83329676e-09 15.9075558,8.83329676e-09 L15.8628478,8.83329676e-09 C16.1386557,8.83329676e-09 16.3839621,0.227652797 16.4095552,0.495901563 L16.9853094,6.53054998 C17.1323505,8.07173014 16.2458432,9.3782038 14.8951049,9.83048935 Z M8,0.991803112 L8,19.0081969 C8,19.5446944 7.55228475,20 7,20 C6.44386482,20 6.03207334,19.5509732 6.07163781,18.9970707 L6.5,13 C6.5,13 3,9.5 3,5.99999999 C3,2.5 6,1.90968924e-09 7,2.55442531e-09 C7,1.90968924e-09 7.00286865,2.49770003e-09 7.00286865,2.49770003e-09 C7.54681396,2.3286457e-09 8,0.44404538 8,0.991803112 Z"/>
</svg>
