<svg xmlns="http://www.w3.org/2000/svg" width="20" height="20" viewBox="0 0 20 20">
  <path fill="#444444" fill-rule="evenodd" d="M12.3971887,12.3971887 C10.2717915,14.5225858 6.82561727,14.5225858 4.70022009,12.3971887 C2.57482291,10.2717915 2.57482291,6.82561727 4.70022009,4.70022009 C6.82561727,2.57482291 10.2717915,2.57482291 12.3971887,4.70022009 C14.5225858,6.82561727 14.5225858,10.2717915 12.3971887,12.3971887 M2.50097632,2.50097632 C-0.833658774,5.83561142 -0.833658774,11.2617973 2.50097632,14.5964324 C5.27483887,17.370295 9.49178688,17.8287592 12.7525754,15.9872099 L17.4902957,19.6726163 C18.1095301,20.1541576 18.9895353,20.0987727 19.544154,19.544154 C20.0987727,18.9895353 20.1541576,18.1095301 19.6726163,17.4902957 L15.9872099,12.7525754 C17.8287592,9.49178688 17.370295,5.27483887 14.5964324,2.50097632 C11.2617973,-0.833658774 5.83561142,-0.833658774 2.50097632,2.50097632"/>
</svg>
