<svg xmlns="http://www.w3.org/2000/svg" width="20" height="20" viewBox="0 0 20 20">
  <path fill="#444444" fill-rule="evenodd" d="M12.996384,18.6719469 L12.9937233,18.6730666 C12.9919302,18.6730666 12.990137,18.6721644 12.9883438,18.6721644 C12.8305435,18.6721644 12.686192,18.7398328 12.5687384,18.8526136 L12.5498553,18.8605616 C12.5441144,18.8664164 12.5384532,18.872399 12.5328747,18.878508 C11.8837415,19.5912825 10.9593543,20 10,20 C9.04064571,20 8.11625853,19.5912825 7.46712535,18.878508 C7.46126294,18.8720881 7.45530935,18.865808 7.44926776,18.8596689 L7.43036504,18.8517113 C7.31380798,18.7398328 7.16945654,18.6721644 7.01165621,18.6721644 C7.00986302,18.6721644 7.00806984,18.6730666 7.00717324,18.6730666 L7.0044867,18.671936 C6.8350087,18.6739363 6.67553293,18.7468434 6.55529047,18.8794103 C5.90615729,19.5912825 4.98177011,20 4.02241582,20 C2.81291214,20 1.67782566,19.3377513 1.06096981,18.2721986 C0.936343413,18.0565618 1.00896743,17.7804745 1.22235652,17.6550623 C1.43395242,17.5278456 1.710103,17.6018298 1.83562599,17.8174666 C2.29916446,18.6195634 3.1168571,19.0977539 4.02241582,19.0977539 C4.73162072,19.0977539 5.41482444,18.7955014 5.89539817,18.2685897 C6.18410106,17.950999 6.59115418,17.7696475 7.01165621,17.7696475 L7.0125528,17.7696475 C7.43305482,17.7696475 7.83921136,17.9519013 8.12701765,18.2685897 C9.08816513,19.3224131 10.9118349,19.3224131 11.8729824,18.2685897 C12.1607886,17.9519013 12.5669452,17.7696475 12.9874472,17.7696475 L12.9883438,17.7696475 C13.4088458,17.7696475 13.8158989,17.950999 14.1046018,18.2676874 C14.5851756,18.7955014 15.2683793,19.0977539 15.9775842,19.0977539 C16.8831429,19.0977539 17.7008355,18.6195634 18.164374,17.8174666 C18.2890004,17.6018298 18.565151,17.5278456 18.7776435,17.6550623 C18.9910326,17.7804745 19.0636566,18.0565618 18.9390302,18.2721986 C18.3221743,19.3377513 17.1870879,20 15.9775842,20 C15.0182299,20 14.0938427,19.5912825 13.4447095,18.878508 C13.324673,18.7470564 13.1655374,18.674186 12.996384,18.6719469 Z M2.82259534,16.7578687 L1.12534517,13.9645147 C0.907473125,13.6063229 1.09396443,13.1678313 1.53508808,13.0036225 L9.65732223,9.98560917 C9.87519428,9.90440702 10.1253437,9.90440702 10.3432157,9.98560917 L18.4654499,13.0036225 C18.9056769,13.1678313 19.0921682,13.6063229 18.8751928,13.9645147 L17.177046,16.7578687 C17.0963527,16.8914011 16.9663467,17.0005729 16.80496,17.0682414 L14.9705311,17.8405641 C14.8988037,17.7846248 14.8279729,17.7268811 14.766108,17.6583104 C14.3061559,17.1557593 13.6588159,16.8679427 12.9881645,16.8679427 C12.3175131,16.8679427 11.6701731,17.1557593 11.2120141,17.6592126 C10.9233113,17.9749988 10.481291,18.1563502 9.99982068,18.1563502 C9.51835035,18.1563502 9.0763301,17.9749988 8.78762722,17.6583104 C8.33036489,17.1557593 7.68302489,16.8679427 7.01237348,16.8679427 C6.34082548,16.8679427 5.69258888,17.1557593 5.23442996,17.6592126 C5.17256506,17.7268811 5.10173423,17.7846248 5.03000681,17.8405641 L3.19468135,17.0682414 C3.03419124,17.0005729 2.90418528,16.8914011 2.82259534,16.7578687 Z M8.29154242,8.62366862 L5.22967802,9.96079741 L3.47952888,10.7520673 L4.31515337,6.51602164 L5.24940306,6.07031204 L5.82232586,3.34011522 L9.18454885,2.63636323 L9.18454885,0.817435004 C9.18454885,0.366311934 9.54677234,0 9.9995517,0 C10.4505379,0 10.8154511,0.366311934 10.8154511,0.817435004 L10.8154511,2.6670396 L14.0288397,3.34011522 L14.6008659,6.07031204 L15.5360122,6.51602164 L16.3707401,10.7520673 L14.6196944,9.96079741 L11.55783,8.62366862 C10.5222653,8.17164331 9.33607303,8.16893657 8.29154242,8.62366862 Z"/>
</svg>
