<svg xmlns="http://www.w3.org/2000/svg" width="20" height="20" viewBox="0 0 20 20">
  <path fill="#444444" fill-rule="evenodd" d="M16.5,16 C15.672,16 15,15.328 15,14.5 C15,13.672 15.672,13 16.5,13 C17.328,13 18,13.672 18,14.5 C18,15.328 17.328,16 16.5,16 L16.5,16 Z M3.5,16 C2.672,16 2,15.328 2,14.5 C2,13.672 2.672,13 3.5,13 C4.328,13 5,13.672 5,14.5 C5,15.328 4.328,16 3.5,16 L3.5,16 Z M2.73106348,5.1856 C2.86006679,4.5304 3.49804681,4 4.1395451,4 L15.8612551,4 C16.50979,4 17.1407334,4.5328 17.268564,5.1856 L17.9769094,8.8144 C18.1059128,9.4696 17.6813746,10 17.0281487,10 L2.97147875,10 C2.31942564,10 1.89488747,9.4672 2.02271802,8.8144 L2.73106348,5.1856 Z M8.03483069,1.17862644 C3.04977354,1.54381828 1.91775466,3.30525862 1.62111111,4.35888889 L0,10.1166667 L0,15.5555556 L0,18.8788889 C0,19.5077778 0.386666667,20 1,20 C1.61777778,20 2,19.4977778 2,18.8788889 L2,18 L18,18 L18,18.8788889 C18,19.5077778 18.3866667,20 19,20 C19.6177778,20 20,19.4977778 20,18.8788889 L20,15.5588889 L20,10.0344444 L18.3855556,4.35666667 C18.0859474,3.30605391 16.9510293,1.54414334 11.9658658,1.17870079 C11.8193386,0.501182845 11.2183222,0 10.4991673,0 L9.50083274,0 C8.78803865,0 8.18325459,0.504631316 8.03483069,1.17862644 Z"/>
</svg>
