<svg xmlns="http://www.w3.org/2000/svg" width="20" height="20" viewBox="0 0 20 20">
  <path fill="#444444" fill-rule="evenodd" d="M20,12 L20,14.9975267 C20,15.5511774 19.5446944,16 19.0081969,16 L0.99180311,16 C0.444045377,16 3.55271368e-15,15.544239 3.55271368e-15,14.9975267 L4.61817613e-15,12 C1.1045695,12 2,11.1045695 2,10 C2,8.8954305 1.1045695,8 2.30926389e-13,8 L7.10542736e-15,5.00247329 C7.10542736e-15,4.44882258 0.455305576,4 0.99180311,4 L19.0081969,4 C19.5559546,4 20,4.45576096 20,5.00247329 L20,8 C18.8954305,8 18,8.8954305 18,10 C18,11.1045695 18.8954305,12 20,12 Z"/>
</svg>
