<svg xmlns="http://www.w3.org/2000/svg" width="20" height="20" viewBox="0 0 20 20">
  <path fill="#444444" d="M2.06189375,11 C2.40436852,13.7464283 4.13898913,16.0605201 6.53730758,17.2138273 C5.70258476,15.6107265 5.14550397,13.4337025 5.02468762,11 L2.06189375,11 Z M2.06189375,9 L5.02468762,9 C5.14550397,6.56629752 5.70258476,4.38927348 6.53730758,2.78617271 C4.13898913,3.93947993 2.40436852,6.2535717 2.06189375,9 Z M17.9381062,9 C17.5956315,6.2535717 15.8610109,3.93947993 13.4626924,2.78617271 C14.2974152,4.38927348 14.854496,6.56629752 14.9753124,9 L17.9381062,9 Z M17.9381062,11 L14.9753124,11 C14.854496,13.4337025 14.2974152,15.6107265 13.4626924,17.2138273 C15.8610109,16.0605201 17.5956315,13.7464283 17.9381062,11 Z M0.0493752426,11 L0,11 L0,9 L0.0493752426,9 C0.551099672,3.94667731 4.8146519,0 10,0 C15.1853481,0 19.4489003,3.94667731 19.9506248,9 L20,9 L20,11 L19.9506248,11 C19.4489003,16.0533227 15.1853481,20 10,20 C4.8146519,20 0.551099672,16.0533227 0.0493752426,11 Z M7.02751198,11 C7.13838022,13.0038045 7.57904842,14.8280965 8.25332048,16.1766406 C8.88121089,17.4324214 9.5521641,18 10,18 C10.4478359,18 11.1187891,17.4324214 11.7466795,16.1766406 C12.4209516,14.8280965 12.8616198,13.0038045 12.972488,11 L7.02751198,11 Z M7.02751198,9 L12.972488,9 C12.8616198,6.99619554 12.4209516,5.17190349 11.7466795,3.82335938 C11.1187891,2.56757856 10.4478359,2 10,2 C9.5521641,2 8.88121089,2.56757856 8.25332048,3.82335938 C7.57904842,5.17190349 7.13838022,6.99619554 7.02751198,9 Z"/>
</svg>
