<svg xmlns="http://www.w3.org/2000/svg" width="20" height="20" viewBox="0 0 20 20">
  <path fill="#404041" fill-rule="evenodd" d="M6.5,12 C7.328,12 8,12.672 8,13.5 C8,14.328 7.328,15 6.5,15 C5.672,15 5,14.328 5,13.5 C5,12.672 5.672,12 6.5,12 L6.5,12 Z M15,13.5 C15,14.328 14.328,15 13.5,15 C12.672,15 12,14.328 12,13.5 C12,12.672 12.672,12 13.5,12 C14.328,12 15,12.672 15,13.5 L15,13.5 Z M5,4.991 C5,4.444 5.456,4 5.995,4 L14.005,4 C14.554,4 15,4.451 15,4.991 L15,9.009 C15,9.556 14.544,10 14.005,10 L5.995,10 C5.446,10 5,9.549 5,9.009 L5,4.991 Z M10,20 C13.2212966,20.021608 16.6306781,19.3848042 16.4460172,19.0772062 C16.0283448,18.3814708 15.193,16.99 15.193,16.99 C16.208,16.891 17,16.04 17,15.006 L17,3.994 C17,2.894 15.5,7.77156117e-16 10,0 C4.5,-8.8817842e-16 3,2.893 3,3.994 L3,15.006 C3,16.039 3.792,16.891 4.807,16.99 C4.807,16.99 4.00612666,18.3240502 3.60568998,18.9910753 C3.41779135,19.3040664 6.77870339,19.978392 10,20 Z"/>
</svg>
