<svg xmlns="http://www.w3.org/2000/svg" width="20" height="20" viewBox="0 0 20 20">
  <path fill="#444444" d="M17.9648,6.50524978 C17.9648,6.33039473 17.9648,6.15632732 17.9528,5.98304755 C18.7558651,5.41115407 19.4490844,4.70304512 20,3.89187571 C19.2511032,4.21858824 18.4566634,4.43284623 17.6432,4.52749743 C18.4997952,4.02260904 19.1408988,3.22850715 19.4472,2.29297596 C18.641726,2.76355288 17.7605169,3.09519202 16.8416,3.27358196 C15.5696662,1.94200114 13.5485755,1.61609205 11.9116394,2.4786058 C10.2747034,3.34111954 9.42901999,5.17755314 9.8488,6.9581401 C6.54951659,6.79529613 3.47558062,5.26104056 1.392,2.73720229 C0.302898205,4.58313971 0.859190307,6.94463962 2.6624,8.1301415 C2.00939296,8.11108667 1.3706235,7.9376538 0.8,7.6244796 L0.8,7.6756759 C0.800534506,9.59876082 2.17740119,11.2551124 4.092,11.6359064 C3.48789568,11.7981121 2.85406447,11.8218232 2.2392,11.7052183 C2.77675834,13.3509216 4.31725965,14.4783121 6.0728,14.5107754 C4.61978803,15.6350713 2.82484761,16.2454066 0.9768,16.2435732 C0.650322855,16.2429561 0.324163252,16.2234944 0,16.1852882 C1.87650876,17.3708972 4.05993072,17.999777 6.2896,17.9968495 C13.8368,18 17.9648,11.8438421 17.9648,6.50524978 Z"/>
</svg>
