<svg xmlns="http://www.w3.org/2000/svg" width="20" height="20" viewBox="0 0 20 20">
  <path fill="#444444" fill-rule="evenodd" d="M7.15357844,12.5 L6.64446871,12.5 C6.19162242,12.5 5.49475089,12.6882958 5.10278749,12.9205704 L3.70971251,13.7460963 C3.32262951,13.9754788 3,14.5408556 3,15.0024411 L3,19.1642256 C3,19.6172587 3.37063274,20 3.8278314,20 L17.1721686,20 C17.6292114,20 18,19.625811 18,19.1642256 L18,15.0024411 C18,14.549408 17.6822509,13.9783709 17.2902875,13.7460963 L15.8972125,12.9205704 C15.5101295,12.6911879 14.8150149,12.5 14.3555313,12.5 L13.8418519,12.5 C12.8586121,13.0714736 11.7167036,13.3987386 10.5,13.3987386 C9.28030308,13.3987386 8.13710838,13.0715577 7.15357844,12.5 Z M5.5,4.9984876 C5.5,2.23789913 7.74419519,0 10.5,0 C13.2614237,0 15.5,2.23564657 15.5,4.9984876 L15.5,6.66817906 C15.5,9.42876754 13.2558048,11.6666667 10.5,11.6666667 C7.73857625,11.6666667 5.5,9.4310201 5.5,6.66817906 L5.5,4.9984876 Z"/>
</svg>
