<svg xmlns="http://www.w3.org/2000/svg" width="20" height="20" viewBox="0 0 20 20">
  <path fill="#444444" fill-rule="evenodd" d="M10.3235425,12.25 L9.85627403,12.25 C8.96264579,12.7639 7.92447341,13.0591 6.81811984,13.0591 C5.70994809,13.0591 4.67086663,12.7648 3.77632931,12.25 L3.31360624,12.25 C2.9017918,12.25 2.26543395,12.421 1.90543722,12.6325 L0.651812256,13.3678 C0.293633694,13.5775 0,14.0824 0,14.4928 L0,18.2566 C0,18.6616 0.337269661,19 0.75272043,19 L12.8844283,19 C13.2998791,19 13.6362397,18.667 13.6362397,18.2566 L13.6362397,14.4928 C13.6362397,14.0878 13.3444241,13.5784 12.9844274,13.3678 L11.7317115,12.6325 C11.373533,12.4219 10.7408114,12.25 10.3235425,12.25 M6.81811984,1 C9.3290061,1 11.3635331,3.0124 11.3635331,5.4982 L11.3635331,7.0012 C11.3635331,9.4861 9.3235516,11.5003 6.81811984,11.5003 C4.30814265,11.5003 2.27270661,9.4879 2.27270661,7.0012 L2.27270661,5.4982 C2.27270661,3.0142 4.31359715,1 6.81811984,1 Z M19.4136417,13.03084 C19.7372751,13.22074 20,13.67974 20,14.04334 L20,17.43094 C20,17.80084 19.6972755,18.09964 19.3227334,18.09964 L15.4545868,18.09964 L15.4545868,14.49334 C15.4545868,13.85524 15.214589,13.19734 14.8218653,12.65914 C15.457314,12.54664 16.0591267,12.33514 16.5982127,12.02464 L17.0182089,12.02464 C17.3945691,12.02464 17.9627458,12.17944 18.2854701,12.36934 L19.4136417,13.03084 Z M13.8639649,1.9 C16.1230352,1.9 17.9548368,3.7108 17.9548368,5.9491 L17.9548368,7.3009 C17.9548368,9.5374 16.1184898,11.35 13.8639649,11.35 C13.5221498,11.35 13.1966982,11.2942 12.8803375,11.2141 L12.6576122,11.0836 C12.4439778,10.9576 12.1939801,10.8451 11.9285279,10.7515 C12.7157935,9.703 13.1821529,8.4052 13.1821529,7.0012 L13.1821529,5.4991 C13.1821529,4.3075 12.8403378,3.1969 12.2576158,2.2465 C12.7521568,2.0314 13.2903337,1.9 13.8639649,1.9 Z"/>
</svg>
