<svg xmlns="http://www.w3.org/2000/svg" width="20" height="20" viewBox="0 0 20 20">
  <path fill="#444444" fill-rule="evenodd" d="M7.93533333,12.581776 L7.93444444,6.98916289 L13.3384444,9.79509012 L7.93533333,12.581776 Z M19.8004444,6.02023665 C19.8004444,6.02023665 19.6048889,4.64856795 19.0051111,4.04434369 C18.2448889,3.25168639 17.3922222,3.24792657 17.0013333,3.20148181 C14.2026667,3 10.0044444,3 10.0044444,3 L9.99555556,3 C9.99555556,3 5.79755556,3 2.99866667,3.20148181 C2.60777778,3.24792657 1.75555556,3.25168639 0.994888889,4.04434369 C0.395111111,4.64856795 0.2,6.02023665 0.2,6.02023665 C0.2,6.02023665 0,7.63098529 0,9.24173394 L0,10.7520734 C0,12.3626009 0.2,13.9733496 0.2,13.9733496 C0.2,13.9733496 0.395111111,15.3450182 0.994888889,15.9492425 C1.75555556,16.742121 2.75488889,16.7166869 3.2,16.7998452 C4.80022222,16.9526706 10,17 10,17 C10,17 14.2026667,16.9935862 17.0013333,16.7923256 C17.3922222,16.7458808 18.2448889,16.742121 19.0051111,15.9492425 C19.6048889,15.3450182 19.8004444,13.9733496 19.8004444,13.9733496 C19.8004444,13.9733496 20,12.3626009 20,10.7520734 L20,9.24173394 C20,7.63098529 19.8004444,6.02023665 19.8004444,6.02023665 L19.8004444,6.02023665 Z"/>
</svg>
